<?xml version="1.0" encoding="utf-8"?>
<!-- Generator: Adobe Illustrator 27.5.0, SVG Export Plug-In . SVG Version: 6.00 Build 0)  -->
<svg version="1.1" xmlns="http://www.w3.org/2000/svg" xmlns:xlink="http://www.w3.org/1999/xlink" x="0px" y="0px"
	 viewBox="0 0 500 500" style="enable-background:new 0 0 500 500;" xml:space="preserve">
<g id="BACKGROUND">
	<rect style="fill:#FEFEFE;" width="500" height="500"/>
</g>
<g id="OBJECTS">
	<g>
		<g style="opacity:0.43;">
			<path style="fill:#C4EBFF;" d="M412.1,422.829c-83.243,47.79-217.471,47.46-299.938-0.737
				c-82.469-48.197-81.978-126.025,1.265-173.815c83.245-47.788,217.747-47.458,300.216,0.738
				C496.112,297.212,495.345,375.04,412.1,422.829z"/>
		</g>
		<g>
			<g>
				<g>
					<path style="opacity:0.13;fill:#363638;" d="M146.999,454.357v-0.03c-1.773,1.051-4.661,1.051-6.444,0l-0.001,0.027
						l-98.371-57.735c-0.082-0.059-3.81-2.543-6.444-0.898c-2.898,1.808-5.433,3.285-7.188,4.298
						c-1.756,1.015-3.64,4.754,3.615,8.556L140.03,472.22c1.783,1.04,4.669,1.04,6.441,0l127.733-75.336
						c0.882-0.517,0.961-2.573-0.38-3.501l-18.219-8.836L146.999,454.357z"/>
					<path style="fill:#6BAFBF;" d="M271.975,385.212l-104.722-52.281v-22.618L31.117,390.144l-2.639,4.412l1.576,9.804l3.248,4.042
						l102.935,56.842c1.783,1.05,4.671,1.05,6.444,0L271.993,389C273.772,387.948,273.762,386.256,271.975,385.212z"/>
					<g>
						<g style="enable-background:new    ;">
							<g style="enable-background:new    ;">
								<polygon style="fill:#DCDCDF;" points="138.924,450.665 138.924,463.588 35.013,401.901 35.013,388.984 								"/>
							</g>
							<g>
								<polygon style="fill:#FFFFFF;" points="266.345,378.102 266.345,388.783 138.924,463.588 138.924,450.665 								"/>
							</g>
							<g>
								<polygon style="fill:#676A6B;" points="137.867,449.614 38.018,389.904 140.759,330.336 243.602,390.235 								"/>
							</g>
						</g>
					</g>
					<path style="fill:#86C0CE;" d="M35.368,396.228l100.862,59.38c0.889,0.52,2.055,0.782,3.216,0.777
						c1.155,0.005,2.305-0.258,3.187-0.764l129.346-76.227c0.882-0.52,1.343-1.201,1.343-1.884v-4.124
						c0,0.686-0.446,1.362-1.329,1.884l-129.312,76.213c-1.773,1.049-4.661,1.049-6.444,0l-104.552-61.24
						c-0.082-0.059-3.81-2.544-6.443-0.898c-2.898,1.808-2.427,5.748-2.427,5.748v0.08c0,9.141,5.366,11.405,8.606,13.048
						l104.294,61.142l-0.002,0.01c1.783,1.042,4.671,1.042,6.441,0l129.321-76.253c0.881-0.516,1.34-1.196,1.34-1.876l0.508-4.13
						c0,0.684-0.446,1.365-1.329,1.886l-129.312,76.243c-0.883,0.525-2.054,0.786-3.222,0.786c-1.166,0-2.33-0.261-3.222-0.786
						v0.009c-0.001,0-0.001,0-0.001,0l0.001-0.009L32.494,404.609c-2.804-1.712-2.797-4.835-2.797-5.43v-0.695
						C29.697,393.042,34.711,395.845,35.368,396.228z"/>
					<path style="fill:#9BD3E7;" d="M271.985,371.477l-104.746-61.359l0.015-0.009l-1.376-0.846
						c-1.465-0.874-3.695-0.827-5.466,0.151L25.228,389.355c0.053,0,1.229-0.269,1.736-0.115l4.203,1.184l105.077,61.088
						c1.786,1.049,4.669,1.049,6.445,0l129.313-76.243C273.775,374.223,273.772,372.525,271.985,371.477z"/>
					<path style="opacity:0.13;fill:#363638;" d="M142.273,455.797c-0.65,0.373-2.251,0.587-3.103,0.583
						c-0.856,0.004-2.151-0.315-2.806-0.698L34.738,395.951c-0.483-0.283-3.835-1.69-4.616,0.532l105.772,62.079
						c1.874,1.082,4.184,1.076,6.053-0.014l124.399-72.577v-3.284"/>
				</g>
				<g>
					<path style="opacity:0.13;fill:#363638;" d="M148.869,423.708v-0.024c-1.417,0.84-3.728,0.84-5.154,0l-0.001,0.021
						l-78.692-46.184c-0.065-0.047-3.047-2.035-5.155-0.719c-2.317,1.446-4.346,2.628-5.75,3.439
						c-1.404,0.811-2.912,3.802,2.891,6.844l86.286,50.912c1.425,0.833,3.735,0.833,5.152,0l102.18-60.265
						c0.706-0.413,0.769-2.058-0.305-2.8l-14.574-7.07L148.869,423.708z"/>
					<path style="fill:#C5A424;" d="M248.021,368.861l-83.061-48.658v-17.94L56.983,365.582l-2.093,10.691l0.178,8.497l4.202,2.222
						l81.09,45.346c1.414,0.832,3.705,0.832,5.111,0l102.564-60.472C249.446,371.031,249.439,369.689,248.021,368.861z"/>
					<g>
						<g style="enable-background:new    ;">
							<g style="enable-background:new    ;">
								<polygon style="fill:#DCDCDF;" points="142.491,413.585 142.491,431.025 60.074,382.098 60.074,364.662 								"/>
							</g>
							<g>
								<polygon style="fill:#FFFFFF;" points="243.555,356.03 243.555,371.692 142.491,431.025 142.491,413.585 								"/>
							</g>
							<g>
								<polygon style="fill:#676A6B;" points="141.653,412.751 62.458,365.392 143.947,318.145 225.517,365.654 								"/>
							</g>
						</g>
					</g>
					<path style="fill:#E3BD2C;" d="M60.355,370.408l79.999,47.124v-0.027c0.705,0.412,1.63,0.621,2.551,0.616
						c0.916,0.005,1.829-0.204,2.528-0.605l0.023,0.017l102.568-60.476c0.699-0.412,1.065-0.953,1.065-1.494v-3.272
						c0,0.545-0.353,1.082-1.054,1.496l-102.564,60.471v-0.024c-1.406,0.833-3.696,0.833-5.111,0v0.021L57.434,365.66
						c-0.064-0.047-3.02-2.018-5.11-0.712c-2.298,1.434-1.925,4.561-1.925,4.561v7.253c0,7.251,4.255,9.046,6.826,10.35
						l82.72,48.495l-0.001,0.009c1.414,0.826,3.703,0.826,5.108,0l102.572-60.481c0.699-0.409,1.064-0.949,1.064-1.488l0.401-3.277
						c0,0.544-0.353,1.084-1.054,1.496l-102.564,60.472c-0.7,0.417-1.63,0.623-2.556,0.623c-0.924,0-1.848-0.206-2.555-0.623v0.007
						c0,0,0-0.001-0.001-0.001l0.001-0.007l-81.692-47.751c-2.224-1.357-2.811-4.177-2.811-4.649v-7.742
						C55.858,367.88,59.836,370.104,60.355,370.408z"/>
					<path style="fill:#FDD539;" d="M248.029,350.776l-83.08-48.668l0.012-0.007l-1.092-0.671c-1.162-0.693-2.931-0.656-4.335,0.12
						L52.313,364.956c0.042,0,0.974-0.213,1.377-0.091l3.334,0.938l83.342,48.453c1.417,0.832,3.703,0.832,5.112,0l102.565-60.471
						C249.449,352.954,249.446,351.607,248.029,350.776z"/>
					<path style="opacity:0.13;fill:#363638;" d="M144.88,417.659c-0.583,0.335-1.341,0.509-2.105,0.504
						c-0.767,0.004-1.537-0.169-2.124-0.513v0.023l-80.45-47.396c-0.433-0.254-3.956-2.094-4.308,1.279l83.822,48.447
						c1.678,0.969,3.748,0.964,5.423-0.013l98.418-57.423v-2.941"/>
					<g>
						<path style="opacity:0.13;fill:#363638;" d="M79.738,387.401l-12.973-7.489C66.766,379.912,74.774,383.781,79.738,387.401z"/>
						<path style="fill:#FB4133;" d="M71.187,382.465c0,0-5.765,0.621-8.729,8.482l4.308-0.77l2.306,4.027
							c0,0,3.688-7.588,8.86-7.845L71.187,382.465z"/>
					</g>
					<g>
						<g>
							<g style="enable-background:new    ;">
								<g>
									<path style="fill:#FFFFFF;" d="M139.28,334.404l22.889-13.302c0.222-0.129,0.495-0.13,0.717-0.001l52.073,30.62
										c0.477,0.276,0.477,0.963,0.002,1.239l-22.889,13.303c-0.221,0.127-0.496,0.129-0.719,0l-52.071-30.621
										C138.805,335.367,138.804,334.68,139.28,334.404z"/>
								</g>
							</g>
						</g>
						<g>
							<g style="enable-background:new    ;">
								<g>
									<path style="fill:#78B3C2;" d="M198.485,349.639c0.822,0.475,0.82,1.243,0.01,1.714c-0.817,0.475-2.143,0.479-2.965,0.004
										l-33.401-19.292c-0.816-0.471-0.82-1.243-0.003-1.717c0.81-0.471,2.143-0.471,2.958,0L198.485,349.639z"/>
								</g>
							</g>
						</g>
						<g>
							<g style="enable-background:new    ;">
								<g>
									<path style="fill:#78B3C2;" d="M191.359,353.958c0.822,0.475,0.82,1.243,0.01,1.714c-0.817,0.475-2.143,0.479-2.965,0.004
										l-33.401-19.292c-0.816-0.471-0.82-1.243-0.003-1.717c0.81-0.471,2.143-0.471,2.958,0L191.359,353.958z"/>
								</g>
							</g>
						</g>
					</g>
				</g>
			</g>
			<g>
				<g>
					<g>
						<g>
							<g>
								<g>
									<path style="fill:#A7A3A6;" d="M445.688,302.524l-159.059-94.042c-6.624-3.627-11.993-11.779-11.993-18.208l-4.184-128.915
										c0,0,2.209-0.959,3.832-2.056c2.197-1.486,5.592-1.351,9.402,0.735l158.117,88.609
										c6.624,3.627,11.993,11.779,11.993,18.208v126.89c0,2.993-1.163,5.085-3.075,6.1
										C448.525,301.009,445.688,302.524,445.688,302.524z"/>
									<path style="fill:#D6D3D0;" d="M437.364,301.227l-158.117-88.609c-6.624-3.626-11.993-11.779-11.993-18.208V67.521
										c0-6.429,5.37-8.701,11.993-5.074l158.117,88.609c6.624,3.627,11.993,11.778,11.993,18.208v126.889
										C449.357,302.582,443.988,304.854,437.364,301.227z"/>
									<path style="fill:#FEFEFE;" d="M432.594,283.289l-149.549-83.778c-5.29-2.958-8.55-8.432-8.55-14.358V82.036
										c0-4.004,4.463-6.508,8.037-4.509l150.857,84.509c5.812,3.25,9.393,9.264,9.393,15.774v99.764
										C442.782,282.648,437.124,285.823,432.594,283.289z"/>
									<path style="fill:#A7A3A6;" d="M362.68,116.107c0-1.182-0.762-2.557-1.702-3.072c-0.94-0.515-1.702,0.026-1.702,1.208
										s0.762,2.558,1.702,3.072C361.918,117.829,362.68,117.289,362.68,116.107z"/>
								</g>
								<path style="fill:#A7A3A6;" d="M429.874,313.076l-105.07,57.414l-163.237-91.478l-11.544-6.469v5.774v2.072
									c0.297,1.796,1.368,3.487,3.22,4.525l162.113,90.848c2.929,1.641,6.181,2.498,9.449,2.574
									c3.583,0.083,7.185-0.773,10.397-2.574l102.163-57.252c1.851-1.038,2.923-2.729,3.219-4.525v-2.072v-4.474L429.874,313.076z
									"/>
								<path style="fill:#D6D3D0;" d="M153.242,278.753l162.113,90.849c6.14,3.441,13.706,3.441,19.846,0l102.163-57.252
									c4.41-2.471,4.41-8.65,0-11.121l-162.113-90.849c-6.14-3.441-13.705-3.441-19.846,0l-102.163,57.252
									C148.832,270.103,148.832,276.281,153.242,278.753z"/>
								<polygon style="fill:#3E3D4D;" points="435.055,294.049 281.146,207.798 281.146,213.682 435.055,299.933 								"/>
								<g>
									<path style="fill:#3E3D4D;" d="M241.389,235.279l-6.999-3.923c-0.407-0.228-0.437-0.581-0.067-0.789l4.793-2.692
										c0.37-0.208,1-0.191,1.407,0.036l6.999,3.923c0.407,0.228,0.437,0.581,0.067,0.789l-4.792,2.692
										C242.426,235.523,241.796,235.507,241.389,235.279z"/>
									<path style="fill:#3E3D4D;" d="M250.525,240.398l-6.999-3.922c-0.407-0.228-0.437-0.582-0.067-0.79l4.792-2.692
										c0.37-0.208,1-0.192,1.407,0.036l6.999,3.922c0.407,0.228,0.437,0.582,0.066,0.789l-4.792,2.692
										C251.562,240.643,250.932,240.626,250.525,240.398z"/>
									<path style="fill:#3E3D4D;" d="M259.661,245.518l-6.999-3.922c-0.407-0.228-0.437-0.582-0.066-0.79l4.792-2.692
										c0.37-0.208,1-0.192,1.407,0.036l6.999,3.922c0.407,0.228,0.437,0.581,0.067,0.789l-4.792,2.692
										C260.698,245.762,260.068,245.746,259.661,245.518z"/>
									<path style="fill:#3E3D4D;" d="M268.797,250.638l-6.999-3.922c-0.407-0.228-0.437-0.581-0.066-0.789l4.792-2.692
										c0.37-0.208,1-0.191,1.407,0.036l7,3.923c0.407,0.228,0.437,0.581,0.066,0.789l-4.792,2.692
										C269.833,250.882,269.203,250.866,268.797,250.638z"/>
									<path style="fill:#3E3D4D;" d="M277.932,255.757l-6.999-3.922c-0.407-0.228-0.437-0.581-0.067-0.79l4.792-2.692
										c0.371-0.208,1.001-0.192,1.407,0.036l6.999,3.922c0.407,0.228,0.437,0.582,0.066,0.789l-4.792,2.692
										C278.969,256.002,278.339,255.985,277.932,255.757z"/>
									<path style="fill:#3E3D4D;" d="M287.068,260.877l-6.999-3.922c-0.407-0.228-0.436-0.582-0.066-0.789l4.792-2.692
										c0.37-0.208,1-0.192,1.407,0.036l6.999,3.922c0.407,0.228,0.437,0.581,0.067,0.789l-4.792,2.692
										C288.105,261.121,287.475,261.105,287.068,260.877z"/>
									<path style="fill:#3E3D4D;" d="M296.204,265.997l-6.999-3.922c-0.407-0.228-0.437-0.582-0.066-0.789l4.792-2.692
										c0.37-0.208,1-0.192,1.407,0.036l6.999,3.922c0.407,0.228,0.437,0.581,0.067,0.789l-4.792,2.692
										C297.241,266.241,296.611,266.225,296.204,265.997z"/>
									<path style="fill:#3E3D4D;" d="M305.34,271.116l-6.999-3.922c-0.407-0.228-0.437-0.581-0.067-0.789l4.792-2.692
										c0.37-0.208,1-0.192,1.407,0.036l6.999,3.922c0.407,0.228,0.437,0.582,0.067,0.789l-4.792,2.692
										C306.377,271.361,305.747,271.345,305.34,271.116z"/>
									<path style="fill:#3E3D4D;" d="M314.475,276.236l-6.999-3.922c-0.407-0.228-0.437-0.582-0.067-0.789l4.792-2.692
										c0.37-0.208,1-0.191,1.407,0.036l6.999,3.922c0.407,0.228,0.436,0.581,0.066,0.79l-4.792,2.692
										C315.512,276.48,314.883,276.464,314.475,276.236z"/>
									<path style="fill:#3E3D4D;" d="M323.611,281.356l-6.999-3.923c-0.407-0.228-0.436-0.581-0.066-0.789l4.792-2.692
										c0.37-0.208,1-0.192,1.407,0.036l6.999,3.922c0.407,0.228,0.437,0.581,0.067,0.789l-4.792,2.692
										C324.648,281.6,324.018,281.584,323.611,281.356z"/>
									<path style="fill:#3E3D4D;" d="M332.747,286.476l-6.999-3.922c-0.407-0.228-0.437-0.581-0.067-0.789l4.792-2.693
										c0.37-0.208,1-0.191,1.407,0.037l6.999,3.922c0.407,0.228,0.437,0.582,0.067,0.789l-4.792,2.692
										C333.784,286.72,333.154,286.704,332.747,286.476z"/>
									<path style="fill:#3E3D4D;" d="M341.883,291.595l-6.999-3.922c-0.407-0.228-0.437-0.582-0.067-0.79l4.792-2.692
										c0.37-0.208,1-0.191,1.407,0.036l6.999,3.922c0.407,0.228,0.436,0.582,0.066,0.79l-4.792,2.692
										C342.92,291.839,342.29,291.823,341.883,291.595z"/>
									<path style="fill:#3E3D4D;" d="M351.019,296.715l-6.999-3.922c-0.407-0.228-0.436-0.581-0.066-0.789l4.792-2.692
										c0.37-0.208,1-0.192,1.407,0.036l6.999,3.922c0.407,0.228,0.436,0.581,0.067,0.789l-4.792,2.692
										C352.056,296.959,351.426,296.943,351.019,296.715z"/>
									<path style="fill:#3E3D4D;" d="M374.521,309.886l-5.378-3.014c-0.407-0.228-0.437-0.581-0.066-0.789l4.792-2.693
										c0.37-0.208,1-0.191,1.407,0.037l5.378,3.014c0.407,0.228,0.437,0.581,0.066,0.789l-4.792,2.692
										C375.558,310.13,374.928,310.114,374.521,309.886z"/>
									<path style="fill:#3E3D4D;" d="M381.981,314.066l-5.378-3.014c-0.407-0.228-0.437-0.582-0.066-0.79l4.792-2.692
										c0.37-0.208,1-0.192,1.407,0.036l5.378,3.014c0.407,0.228,0.437,0.582,0.067,0.79l-4.792,2.692
										C383.018,314.311,382.388,314.294,381.981,314.066z"/>
									<path style="fill:#3E3D4D;" d="M389.441,318.246l-5.378-3.014c-0.407-0.228-0.437-0.581-0.066-0.789l4.792-2.692
										c0.37-0.208,1-0.191,1.407,0.036l5.378,3.014c0.407,0.228,0.437,0.581,0.067,0.79l-4.792,2.692
										C390.477,318.491,389.848,318.475,389.441,318.246z"/>
									<path style="fill:#3E3D4D;" d="M396.9,322.427l-5.378-3.014c-0.407-0.228-0.437-0.581-0.066-0.789l4.792-2.692
										c0.37-0.208,1-0.192,1.407,0.036l5.378,3.014c0.407,0.228,0.437,0.582,0.067,0.789l-4.792,2.692
										C397.937,322.671,397.307,322.655,396.9,322.427z"/>
									<path style="fill:#3E3D4D;" d="M366.177,314.573l-5.378-3.014c-0.407-0.228-0.437-0.582-0.067-0.789l4.792-2.692
										c0.37-0.208,1-0.191,1.407,0.036l5.378,3.014c0.407,0.228,0.437,0.582,0.067,0.79l-4.792,2.692
										C367.214,314.818,366.584,314.802,366.177,314.573z"/>
									<path style="fill:#3E3D4D;" d="M373.637,318.754l-5.378-3.014c-0.407-0.228-0.437-0.582-0.067-0.789l4.792-2.692
										c0.37-0.208,1-0.192,1.407,0.036l5.378,3.014c0.407,0.228,0.437,0.581,0.067,0.789l-4.792,2.692
										C374.674,318.998,374.044,318.982,373.637,318.754z"/>
									<path style="fill:#3E3D4D;" d="M381.097,322.934l-5.378-3.014c-0.407-0.228-0.437-0.581-0.067-0.789l4.792-2.692
										c0.37-0.208,1-0.192,1.407,0.037l5.378,3.014c0.407,0.228,0.437,0.581,0.067,0.789l-4.792,2.692
										C382.133,323.179,381.503,323.163,381.097,322.934z"/>
									<path style="fill:#3E3D4D;" d="M357.833,319.261l-5.378-3.014c-0.407-0.228-0.437-0.581-0.067-0.789l4.792-2.692
										c0.37-0.208,1-0.192,1.407,0.036l5.378,3.014c0.407,0.228,0.437,0.582,0.067,0.79l-4.792,2.692
										C358.87,319.505,358.24,319.489,357.833,319.261z"/>
									<path style="fill:#3E3D4D;" d="M365.293,323.442l-5.378-3.014c-0.407-0.228-0.437-0.582-0.066-0.79l4.792-2.692
										c0.37-0.208,1-0.192,1.407,0.036l5.378,3.014c0.407,0.228,0.437,0.582,0.067,0.789l-4.792,2.692
										C366.33,323.686,365.7,323.67,365.293,323.442z"/>
									<path style="fill:#3E3D4D;" d="M372.752,327.622l-5.378-3.014c-0.407-0.228-0.437-0.581-0.067-0.789l4.792-2.692
										c0.37-0.208,1-0.191,1.407,0.037l5.378,3.014c0.407,0.228,0.437,0.581,0.066,0.789l-4.792,2.692
										C373.789,327.866,373.159,327.85,372.752,327.622z"/>
									<path style="fill:#3E3D4D;" d="M380.212,331.802l-5.379-3.014c-0.407-0.228-0.437-0.582-0.067-0.79l13.136-7.38
										c0.37-0.208,1-0.192,1.407,0.036l5.378,3.014c0.407,0.228,0.437,0.582,0.067,0.789l-13.136,7.38
										C381.249,332.047,380.619,332.03,380.212,331.802z"/>
									<path style="fill:#3E3D4D;" d="M349.489,323.949l-5.378-3.014c-0.407-0.228-0.437-0.581-0.067-0.789l4.792-2.692
										c0.37-0.208,1-0.192,1.407,0.036l5.379,3.014c0.407,0.228,0.436,0.582,0.066,0.79l-4.792,2.692
										C350.526,324.193,349.896,324.177,349.489,323.949z"/>
									<path style="fill:#3E3D4D;" d="M356.949,328.129l-5.379-3.014c-0.407-0.228-0.437-0.581-0.066-0.789l4.792-2.692
										c0.37-0.208,1-0.192,1.407,0.036l5.378,3.014c0.407,0.228,0.437,0.581,0.067,0.789l-4.792,2.692
										C357.985,328.374,357.356,328.357,356.949,328.129z"/>
									<path style="fill:#3E3D4D;" d="M364.408,332.31l-5.378-3.014c-0.407-0.228-0.437-0.581-0.066-0.789l4.792-2.692
										c0.37-0.208,1-0.192,1.407,0.036l5.378,3.014c0.407,0.228,0.437,0.582,0.067,0.789l-4.792,2.692
										C365.445,332.554,364.815,332.538,364.408,332.31z"/>
									<path style="fill:#3E3D4D;" d="M341.145,328.637l-5.378-3.014c-0.407-0.228-0.437-0.582-0.066-0.79l4.792-2.692
										c0.37-0.208,1-0.192,1.407,0.036l5.378,3.014c0.407,0.228,0.437,0.582,0.067,0.79l-4.792,2.692
										C342.182,328.881,341.552,328.865,341.145,328.637z"/>
									<path style="fill:#3E3D4D;" d="M348.605,332.817l-5.379-3.014c-0.407-0.228-0.436-0.581-0.066-0.79l4.792-2.692
										c0.37-0.208,1-0.192,1.407,0.036l5.378,3.014c0.407,0.228,0.437,0.581,0.066,0.789l-4.792,2.692
										C349.641,333.061,349.012,333.045,348.605,332.817z"/>
									<path style="fill:#3E3D4D;" d="M356.064,336.997l-5.378-3.014c-0.407-0.228-0.437-0.581-0.067-0.789l4.792-2.692
										c0.37-0.208,1-0.192,1.407,0.036l5.378,3.014c0.407,0.228,0.437,0.582,0.067,0.79l-4.792,2.692
										C357.101,337.241,356.471,337.225,356.064,336.997z"/>
									<path style="fill:#3E3D4D;" d="M363.524,341.178l-5.378-3.014c-0.407-0.228-0.437-0.582-0.067-0.789l13.136-7.38
										c0.37-0.208,1-0.191,1.407,0.037l5.378,3.014c0.407,0.228,0.437,0.581,0.067,0.789l-13.136,7.38
										C364.561,341.422,363.931,341.406,363.524,341.178z"/>
									<path style="fill:#3E3D4D;" d="M365.993,305.107l-12.838-7.195c-0.406-0.228-0.437-0.581-0.066-0.789l4.792-2.692
										c0.37-0.208,1-0.191,1.407,0.036l12.838,7.195c0.407,0.228,0.437,0.581,0.067,0.789l-4.792,2.692
										C367.03,305.351,366.4,305.335,365.993,305.107z"/>
									<path style="fill:#3E3D4D;" d="M255.275,227.497l-6.999-3.923c-0.407-0.228-0.437-0.581-0.067-0.789l4.792-2.692
										c0.37-0.208,1-0.192,1.407,0.036l6.999,3.922c0.407,0.228,0.437,0.581,0.066,0.789l-4.792,2.692
										C256.312,227.741,255.682,227.725,255.275,227.497z"/>
									<path style="fill:#3E3D4D;" d="M264.411,232.617l-6.999-3.923c-0.407-0.228-0.437-0.581-0.067-0.789l4.792-2.692
										c0.37-0.208,1-0.192,1.407,0.036l6.999,3.923c0.407,0.228,0.437,0.581,0.066,0.79l-4.792,2.692
										C265.447,232.861,264.818,232.845,264.411,232.617z"/>
									<path style="fill:#3E3D4D;" d="M273.547,237.736l-6.999-3.922c-0.407-0.228-0.437-0.581-0.066-0.79l4.792-2.692
										c0.37-0.208,1-0.192,1.407,0.036l6.999,3.922c0.407,0.228,0.437,0.582,0.067,0.789l-4.792,2.692
										C274.583,237.981,273.954,237.964,273.547,237.736z"/>
									<path style="fill:#3E3D4D;" d="M282.682,242.856l-6.999-3.922c-0.407-0.228-0.437-0.581-0.067-0.789l4.792-2.692
										c0.37-0.208,1-0.192,1.407,0.037l6.999,3.922c0.407,0.228,0.437,0.581,0.066,0.789l-4.792,2.692
										C283.719,243.1,283.089,243.084,282.682,242.856z"/>
									<path style="fill:#3E3D4D;" d="M291.818,247.976l-6.999-3.922c-0.407-0.228-0.437-0.582-0.067-0.789l4.792-2.692
										c0.37-0.208,1-0.192,1.407,0.036l6.999,3.922c0.407,0.228,0.436,0.582,0.066,0.79l-4.792,2.692
										C292.855,248.22,292.225,248.204,291.818,247.976z"/>
									<path style="fill:#3E3D4D;" d="M300.954,253.096l-6.999-3.923c-0.406-0.228-0.436-0.581-0.066-0.79l4.792-2.692
										c0.37-0.208,1-0.192,1.407,0.036l6.999,3.922c0.407,0.228,0.437,0.582,0.067,0.79l-4.792,2.692
										C301.991,253.34,301.361,253.324,300.954,253.096z"/>
									<path style="fill:#3E3D4D;" d="M310.09,258.215l-6.999-3.922c-0.407-0.228-0.437-0.582-0.067-0.79l4.792-2.692
										c0.37-0.208,1-0.192,1.407,0.036l6.999,3.922c0.406,0.228,0.437,0.581,0.066,0.789l-4.792,2.692
										C311.126,258.46,310.497,258.443,310.09,258.215z"/>
									<path style="fill:#3E3D4D;" d="M319.225,263.335l-6.999-3.922c-0.407-0.228-0.437-0.582-0.067-0.789l4.792-2.692
										c0.37-0.208,1-0.191,1.407,0.036l6.999,3.923c0.407,0.228,0.437,0.581,0.066,0.789l-4.792,2.692
										C320.262,263.579,319.632,263.563,319.225,263.335z"/>
									<path style="fill:#3E3D4D;" d="M328.361,268.455l-6.999-3.923c-0.407-0.228-0.437-0.581-0.067-0.789l4.792-2.692
										c0.37-0.208,1-0.191,1.407,0.036l6.999,3.922c0.407,0.228,0.437,0.582,0.066,0.789l-4.792,2.692
										C329.398,268.699,328.768,268.683,328.361,268.455z"/>
									<path style="fill:#3E3D4D;" d="M337.497,273.574l-6.999-3.922c-0.407-0.228-0.437-0.582-0.066-0.79l4.792-2.692
										c0.37-0.208,1-0.192,1.407,0.036l6.999,3.923c0.407,0.228,0.437,0.581,0.067,0.789l-4.792,2.692
										C338.534,273.819,337.904,273.802,337.497,273.574z"/>
									<path style="fill:#3E3D4D;" d="M346.633,278.694l-6.999-3.922c-0.407-0.228-0.437-0.582-0.067-0.789l4.792-2.692
										c0.37-0.208,1-0.192,1.407,0.036l6.999,3.922c0.407,0.228,0.437,0.581,0.066,0.789l-4.792,2.692
										C347.67,278.938,347.04,278.922,346.633,278.694z"/>
									<path style="fill:#3E3D4D;" d="M355.768,283.814l-6.999-3.923c-0.407-0.228-0.437-0.581-0.067-0.789l4.792-2.692
										c0.37-0.208,1-0.192,1.407,0.036l6.999,3.922c0.407,0.228,0.437,0.582,0.067,0.789l-4.792,2.692
										C356.805,284.058,356.176,284.042,355.768,283.814z"/>
									<path style="fill:#3E3D4D;" d="M364.904,288.933l-6.999-3.922c-0.407-0.228-0.437-0.582-0.067-0.79l4.792-2.692
										c0.37-0.208,1-0.192,1.407,0.036l6.999,3.923c0.407,0.228,0.436,0.581,0.067,0.789l-4.792,2.692
										C365.941,289.178,365.311,289.161,364.904,288.933z"/>
									<path style="fill:#3E3D4D;" d="M388.407,302.104l-5.378-3.014c-0.407-0.228-0.437-0.581-0.067-0.789l4.792-2.692
										c0.37-0.208,1-0.192,1.407,0.036l5.378,3.014c0.407,0.228,0.437,0.581,0.067,0.789l-4.792,2.692
										C389.444,302.349,388.814,302.332,388.407,302.104z"/>
									<path style="fill:#3E3D4D;" d="M395.867,306.285l-5.378-3.014c-0.407-0.228-0.437-0.582-0.067-0.79l4.792-2.692
										c0.37-0.208,1-0.192,1.407,0.036l5.378,3.014c0.407,0.228,0.437,0.581,0.066,0.79l-4.792,2.692
										C396.904,306.529,396.273,306.513,395.867,306.285z"/>
									<path style="fill:#3E3D4D;" d="M403.326,310.465l-5.378-3.014c-0.407-0.228-0.437-0.581-0.067-0.789l4.792-2.692
										c0.37-0.208,1-0.191,1.407,0.036l5.378,3.014c0.407,0.228,0.437,0.581,0.067,0.789l-4.792,2.692
										C404.363,310.709,403.733,310.693,403.326,310.465z"/>
									<path style="fill:#3E3D4D;" d="M410.786,314.646l-5.378-3.014c-0.407-0.228-0.437-0.582-0.066-0.789l4.792-2.692
										c0.37-0.208,1-0.192,1.407,0.036l5.379,3.014c0.407,0.228,0.437,0.581,0.066,0.789l-4.792,2.692
										C411.823,314.89,411.193,314.873,410.786,314.646z"/>
									<path style="fill:#3E3D4D;" d="M379.879,297.325l-12.838-7.194c-0.407-0.228-0.437-0.582-0.067-0.79l4.792-2.692
										c0.37-0.208,1-0.192,1.407,0.036l12.838,7.194c0.407,0.228,0.437,0.581,0.067,0.789l-4.792,2.692
										C380.916,297.57,380.286,297.553,379.879,297.325z"/>
									<path style="fill:#3E3D4D;" d="M237.281,242.34l-11.236-6.296c-0.407-0.228-0.437-0.581-0.066-0.789l4.792-2.692
										c0.37-0.208,1-0.192,1.407,0.036l11.236,6.297c0.407,0.228,0.437,0.581,0.067,0.789l-4.792,2.692
										C238.318,242.585,237.688,242.568,237.281,242.34z"/>
									<path style="fill:#3E3D4D;" d="M246.417,247.46l-6.999-3.923c-0.407-0.227-0.437-0.581-0.067-0.789l4.792-2.692
										c0.37-0.208,1-0.192,1.407,0.036l6.999,3.923c0.407,0.228,0.437,0.582,0.067,0.789l-4.792,2.692
										C247.454,247.704,246.824,247.688,246.417,247.46z"/>
									<path style="fill:#3E3D4D;" d="M255.553,252.58l-6.999-3.922c-0.407-0.228-0.436-0.581-0.067-0.79l4.792-2.692
										c0.37-0.208,1-0.192,1.407,0.036l6.999,3.922c0.407,0.228,0.437,0.582,0.067,0.79l-4.792,2.692
										C256.59,252.824,255.96,252.807,255.553,252.58z"/>
									<path style="fill:#3E3D4D;" d="M264.689,257.699l-6.999-3.922c-0.407-0.228-0.437-0.582-0.067-0.79l4.792-2.692
										c0.37-0.208,1-0.192,1.407,0.036l6.999,3.922c0.407,0.228,0.436,0.581,0.066,0.79l-4.792,2.692
										C265.726,257.944,265.096,257.927,264.689,257.699z"/>
									<path style="fill:#3E3D4D;" d="M273.825,262.819l-6.999-3.923c-0.407-0.227-0.436-0.581-0.066-0.789l4.792-2.692
										c0.37-0.208,1-0.192,1.407,0.036l6.999,3.922c0.407,0.228,0.437,0.581,0.067,0.789l-4.792,2.692
										C274.861,263.063,274.231,263.047,273.825,262.819z"/>
									<path style="fill:#3E3D4D;" d="M282.961,267.939l-6.999-3.923c-0.407-0.228-0.437-0.581-0.066-0.789l4.792-2.692
										c0.37-0.208,1-0.191,1.407,0.037l6.999,3.922c0.407,0.228,0.437,0.582,0.066,0.789l-4.792,2.692
										C283.997,268.183,283.367,268.167,282.961,267.939z"/>
									<path style="fill:#3E3D4D;" d="M292.096,273.058l-6.999-3.922c-0.407-0.228-0.437-0.582-0.067-0.79l4.792-2.692
										c0.37-0.208,1-0.192,1.407,0.036l6.999,3.922c0.407,0.228,0.436,0.581,0.066,0.79l-4.792,2.692
										C293.133,273.303,292.503,273.286,292.096,273.058z"/>
									<path style="fill:#3E3D4D;" d="M301.232,278.178l-6.999-3.923c-0.407-0.228-0.437-0.581-0.066-0.789l4.792-2.692
										c0.37-0.208,1-0.192,1.407,0.036l6.999,3.922c0.407,0.228,0.437,0.581,0.067,0.789l-4.792,2.692
										C302.269,278.423,301.639,278.406,301.232,278.178z"/>
									<path style="fill:#3E3D4D;" d="M310.368,283.298l-6.999-3.923c-0.407-0.228-0.437-0.581-0.067-0.789l4.792-2.693
										c0.37-0.208,1-0.191,1.407,0.037l6.999,3.922c0.407,0.228,0.437,0.582,0.067,0.789l-4.792,2.692
										C311.405,283.542,310.775,283.526,310.368,283.298z"/>
									<path style="fill:#3E3D4D;" d="M319.504,288.418l-6.999-3.922c-0.407-0.228-0.437-0.581-0.067-0.79l4.792-2.692
										c0.37-0.208,1-0.192,1.407,0.036l7,3.922c0.406,0.228,0.437,0.582,0.066,0.79l-4.792,2.692
										C320.54,288.662,319.91,288.646,319.504,288.418z"/>
									<path style="fill:#3E3D4D;" d="M328.639,293.537l-6.999-3.922c-0.407-0.228-0.437-0.582-0.067-0.79l4.792-2.692
										c0.37-0.208,1-0.192,1.407,0.036l6.999,3.923c0.407,0.228,0.436,0.581,0.066,0.789l-4.792,2.692
										C329.676,293.782,329.046,293.765,328.639,293.537z"/>
									<path style="fill:#3E3D4D;" d="M337.775,298.657l-6.999-3.923c-0.407-0.228-0.437-0.581-0.066-0.789l4.792-2.692
										c0.37-0.208,1-0.192,1.407,0.036l6.999,3.922c0.407,0.228,0.437,0.581,0.067,0.789l-4.792,2.692
										C338.812,298.901,338.182,298.885,337.775,298.657z"/>
									<path style="fill:#3E3D4D;" d="M346.911,303.777l-6.999-3.922c-0.407-0.228-0.437-0.581-0.067-0.79l4.792-2.692
										c0.37-0.208,1-0.192,1.407,0.037l6.999,3.922c0.407,0.228,0.437,0.582,0.067,0.79l-4.792,2.692
										C347.948,304.021,347.318,304.005,346.911,303.777z"/>
									<path style="fill:#3E3D4D;" d="M357.649,309.795l-8.602-4.82c-0.407-0.228-0.437-0.582-0.067-0.789l4.792-2.692
										c0.37-0.208,1-0.192,1.407,0.036l8.602,4.82c0.407,0.228,0.437,0.581,0.067,0.789l-4.792,2.692
										C358.686,310.039,358.056,310.022,357.649,309.795z"/>
									<path style="fill:#3E3D4D;" d="M231.402,248.372l-13.852-7.762c-0.407-0.228-0.437-0.581-0.066-0.789l4.792-2.692
										c0.37-0.208,1-0.191,1.407,0.036l13.851,7.762c0.407,0.228,0.437,0.582,0.066,0.79l-4.792,2.692
										C232.439,248.616,231.809,248.6,231.402,248.372z"/>
									<path style="fill:#3E3D4D;" d="M240.538,253.491l-6.999-3.923c-0.407-0.228-0.437-0.581-0.066-0.789l4.792-2.692
										c0.37-0.208,1-0.192,1.407,0.036l6.999,3.923c0.407,0.228,0.437,0.581,0.067,0.789l-4.792,2.692
										C241.575,253.736,240.945,253.719,240.538,253.491z"/>
									<path style="fill:#3E3D4D;" d="M249.674,258.611l-6.999-3.922c-0.407-0.228-0.437-0.582-0.066-0.79l4.792-2.692
										c0.37-0.208,1-0.192,1.407,0.036l6.999,3.922c0.407,0.228,0.437,0.582,0.067,0.789l-4.792,2.692
										C250.711,258.855,250.081,258.839,249.674,258.611z"/>
									<path style="fill:#3E3D4D;" d="M258.81,263.731l-6.999-3.922c-0.407-0.228-0.437-0.581-0.067-0.789l4.792-2.692
										c0.37-0.208,1-0.192,1.407,0.037l6.999,3.922c0.407,0.228,0.436,0.582,0.066,0.79l-4.792,2.692
										C259.846,263.975,259.216,263.959,258.81,263.731z"/>
									<path style="fill:#3E3D4D;" d="M267.945,268.85l-6.999-3.922c-0.407-0.228-0.437-0.581-0.067-0.789l4.792-2.692
										c0.37-0.208,1-0.191,1.407,0.036l6.999,3.923c0.407,0.228,0.436,0.581,0.066,0.789l-4.792,2.692
										C268.982,269.095,268.352,269.078,267.945,268.85z"/>
									<path style="fill:#3E3D4D;" d="M277.081,273.97l-6.999-3.922c-0.407-0.228-0.437-0.582-0.066-0.79l4.792-2.692
										c0.37-0.208,1-0.192,1.407,0.036l6.999,3.922c0.407,0.228,0.437,0.582,0.067,0.79l-4.792,2.692
										C278.118,274.214,277.488,274.198,277.081,273.97z"/>
									<path style="fill:#3E3D4D;" d="M286.217,279.09l-6.999-3.922c-0.407-0.228-0.437-0.581-0.067-0.789l4.792-2.692
										c0.37-0.208,1-0.192,1.407,0.036l6.999,3.922c0.407,0.228,0.437,0.581,0.067,0.789l-4.792,2.692
										C287.254,279.334,286.624,279.318,286.217,279.09z"/>
									<path style="fill:#3E3D4D;" d="M295.353,284.209l-6.999-3.922c-0.407-0.228-0.437-0.582-0.067-0.789l4.792-2.692
										c0.37-0.208,1.001-0.191,1.407,0.036l7,3.923c0.407,0.228,0.436,0.581,0.066,0.789l-4.792,2.692
										C296.389,284.454,295.76,284.438,295.353,284.209z"/>
									<path style="fill:#3E3D4D;" d="M304.489,289.329l-6.999-3.923c-0.407-0.228-0.437-0.581-0.066-0.789l4.792-2.692
										c0.37-0.208,1-0.191,1.407,0.036l6.999,3.922c0.407,0.228,0.437,0.582,0.067,0.789l-4.792,2.692
										C305.525,289.573,304.896,289.557,304.489,289.329z"/>
									<path style="fill:#3E3D4D;" d="M313.624,294.449l-6.999-3.922c-0.407-0.228-0.437-0.582-0.066-0.789l4.792-2.692
										c0.37-0.208,1-0.192,1.407,0.036l6.999,3.922c0.407,0.228,0.437,0.581,0.067,0.79l-4.792,2.692
										C314.661,294.693,314.031,294.677,313.624,294.449z"/>
									<path style="fill:#3E3D4D;" d="M322.76,299.569l-6.999-3.922c-0.407-0.228-0.437-0.582-0.067-0.789l4.792-2.692
										c0.37-0.208,1-0.191,1.407,0.036l6.999,3.922c0.407,0.228,0.437,0.581,0.067,0.789l-4.792,2.692
										C323.797,299.813,323.167,299.797,322.76,299.569z"/>
									<path style="fill:#3E3D4D;" d="M331.896,304.688l-6.999-3.923c-0.407-0.228-0.437-0.581-0.067-0.789l4.792-2.692
										c0.37-0.208,1-0.192,1.407,0.036l6.999,3.923c0.407,0.228,0.437,0.581,0.066,0.789l-4.792,2.692
										C332.933,304.933,332.303,304.916,331.896,304.688z"/>
									<path style="fill:#3E3D4D;" d="M341.032,309.808l-6.999-3.922c-0.407-0.228-0.436-0.582-0.066-0.79l4.792-2.692
										c0.37-0.208,1-0.192,1.407,0.036l6.999,3.922c0.407,0.228,0.437,0.582,0.067,0.789l-4.792,2.692
										C342.068,310.052,341.438,310.036,341.032,309.808z"/>
									<path style="fill:#3E3D4D;" d="M349.339,314.463l-15.306-8.577c-0.407-0.228-0.436-0.582-0.066-0.79l4.792-2.692
										c0.37-0.208,1-0.192,1.407,0.036l15.306,8.578c0.407,0.228,0.437,0.581,0.067,0.789l-4.792,2.692
										C350.375,314.707,349.746,314.691,349.339,314.463z"/>
									<path style="fill:#3E3D4D;" d="M225.523,254.403l-16.282-9.125c-0.407-0.228-0.437-0.582-0.066-0.79l4.792-2.692
										c0.37-0.208,1-0.192,1.407,0.036l16.283,9.125c0.407,0.228,0.437,0.581,0.066,0.79l-4.792,2.692
										C226.56,254.647,225.93,254.631,225.523,254.403z"/>
									<path style="fill:#3E3D4D;" d="M234.659,259.523l-6.999-3.923c-0.407-0.228-0.437-0.581-0.067-0.789l4.792-2.692
										c0.37-0.208,1-0.192,1.407,0.036l6.999,3.923c0.407,0.228,0.437,0.581,0.066,0.789l-4.792,2.692
										C235.695,259.767,235.065,259.751,234.659,259.523z"/>
									<path style="fill:#3E3D4D;" d="M243.795,264.642l-7-3.922c-0.407-0.228-0.436-0.581-0.066-0.79l4.792-2.692
										c0.37-0.208,1-0.192,1.407,0.036l6.999,3.922c0.407,0.228,0.437,0.582,0.066,0.79l-4.792,2.692
										C244.831,264.886,244.201,264.87,243.795,264.642z"/>
									<path style="fill:#3E3D4D;" d="M252.93,269.762l-7-3.922c-0.407-0.228-0.437-0.582-0.066-0.79l4.792-2.692
										c0.37-0.208,1-0.191,1.407,0.037l6.999,3.922c0.407,0.228,0.437,0.581,0.066,0.79l-4.792,2.692
										C253.967,270.006,253.337,269.99,252.93,269.762z"/>
									<path style="fill:#3E3D4D;" d="M262.066,274.882l-6.999-3.922c-0.407-0.228-0.437-0.582-0.067-0.789l4.792-2.692
										c0.37-0.208,1-0.192,1.407,0.036l6.999,3.923c0.407,0.228,0.437,0.581,0.067,0.789l-4.792,2.692
										C263.103,275.126,262.473,275.11,262.066,274.882z"/>
									<path style="fill:#3E3D4D;" d="M271.202,280.001l-6.999-3.922c-0.407-0.228-0.436-0.581-0.066-0.789l4.792-2.692
										c0.37-0.208,1-0.191,1.407,0.037l6.999,3.922c0.407,0.228,0.437,0.582,0.067,0.79l-4.792,2.692
										C272.239,280.246,271.609,280.229,271.202,280.001z"/>
									<path style="fill:#3E3D4D;" d="M280.337,285.121l-6.999-3.922c-0.407-0.228-0.437-0.582-0.067-0.79l4.792-2.692
										c0.37-0.208,1-0.191,1.407,0.036l6.999,3.922c0.407,0.228,0.437,0.581,0.066,0.79l-4.792,2.692
										C281.374,285.365,280.745,285.349,280.337,285.121z"/>
									<path style="fill:#3E3D4D;" d="M289.473,290.241l-6.999-3.923c-0.407-0.228-0.437-0.582-0.066-0.789l4.792-2.692
										c0.37-0.208,1-0.192,1.407,0.036l6.999,3.922c0.407,0.228,0.437,0.581,0.066,0.789l-4.792,2.692
										C290.51,290.485,289.88,290.469,289.473,290.241z"/>
									<path style="fill:#3E3D4D;" d="M298.609,295.361l-6.999-3.922c-0.407-0.228-0.437-0.582-0.067-0.789l4.792-2.692
										c0.37-0.208,1-0.191,1.407,0.036l6.999,3.923c0.407,0.228,0.437,0.581,0.067,0.789l-4.792,2.692
										C299.646,295.605,299.016,295.589,298.609,295.361z"/>
									<path style="fill:#3E3D4D;" d="M307.745,300.48l-6.999-3.922c-0.407-0.228-0.437-0.581-0.066-0.789l4.792-2.692
										c0.37-0.208,1-0.191,1.407,0.037l6.999,3.922c0.407,0.228,0.437,0.581,0.067,0.79l-4.792,2.692
										C308.782,300.724,308.152,300.708,307.745,300.48z"/>
									<path style="fill:#3E3D4D;" d="M316.881,305.6l-6.999-3.922c-0.407-0.228-0.437-0.581-0.067-0.79l4.792-2.692
										c0.37-0.208,1-0.192,1.407,0.036l6.999,3.922c0.407,0.228,0.437,0.582,0.066,0.789l-4.792,2.692
										C317.918,305.844,317.288,305.828,316.881,305.6z"/>
									<path style="fill:#3E3D4D;" d="M326.017,310.72l-6.999-3.922c-0.407-0.228-0.437-0.582-0.067-0.789l4.792-2.692
										c0.37-0.208,1-0.191,1.407,0.036l6.999,3.922c0.407,0.228,0.437,0.581,0.067,0.79l-4.792,2.692
										C327.054,310.964,326.424,310.948,326.017,310.72z"/>
									<path style="fill:#3E3D4D;" d="M341.028,319.132l-12.875-7.215c-0.407-0.228-0.436-0.581-0.067-0.789l4.792-2.692
										c0.37-0.208,1-0.192,1.407,0.036l12.875,7.215c0.407,0.228,0.437,0.581,0.066,0.789l-4.792,2.692
										C342.065,319.376,341.435,319.36,341.028,319.132z"/>
									<path style="fill:#3E3D4D;" d="M219.644,260.434l-18.713-10.487c-0.407-0.228-0.437-0.581-0.067-0.789l4.792-2.692
										c0.37-0.208,1-0.192,1.407,0.036l18.713,10.487c0.407,0.228,0.437,0.582,0.067,0.79l-4.792,2.692
										C220.681,260.679,220.05,260.662,219.644,260.434z"/>
									<path style="fill:#3E3D4D;" d="M228.779,265.554l-6.999-3.922c-0.407-0.228-0.437-0.581-0.067-0.789l4.792-2.692
										c0.37-0.208,1-0.192,1.407,0.036l6.999,3.922c0.407,0.228,0.437,0.582,0.066,0.789l-4.792,2.692
										C229.816,265.798,229.186,265.782,228.779,265.554z"/>
									<path style="fill:#3E3D4D;" d="M237.915,270.673l-6.999-3.922c-0.407-0.228-0.436-0.582-0.066-0.79l4.792-2.692
										c0.37-0.208,1-0.192,1.407,0.036l6.999,3.922c0.407,0.228,0.437,0.581,0.067,0.79l-4.792,2.692
										C238.952,270.918,238.322,270.902,237.915,270.673z"/>
									<path style="fill:#3E3D4D;" d="M283.594,296.272l-43.743-24.19c-0.407-0.228-0.437-0.582-0.067-0.789l4.792-2.692
										c0.37-0.208,1-0.191,1.407,0.036l43.743,24.19c0.407,0.228,0.437,0.581,0.067,0.789l-4.792,2.692
										C284.631,296.516,284.001,296.5,283.594,296.272z"/>
									<path style="fill:#3E3D4D;" d="M292.73,301.392l-6.999-3.923c-0.407-0.228-0.437-0.581-0.067-0.789l4.792-2.693
										c0.37-0.208,1-0.191,1.407,0.037l6.999,3.922c0.407,0.228,0.437,0.582,0.067,0.79l-4.792,2.692
										C293.767,301.636,293.137,301.62,292.73,301.392z"/>
									<path style="fill:#3E3D4D;" d="M301.866,306.512l-6.999-3.922c-0.407-0.228-0.436-0.581-0.066-0.789l4.792-2.692
										c0.37-0.208,1-0.192,1.407,0.036l6.999,3.922c0.407,0.228,0.437,0.581,0.066,0.79l-4.792,2.692
										C302.903,306.756,302.272,306.74,301.866,306.512z"/>
									<path style="fill:#3E3D4D;" d="M311.002,311.631l-6.999-3.922c-0.407-0.228-0.437-0.582-0.067-0.79l4.792-2.692
										c0.37-0.208,1-0.192,1.407,0.036l6.999,3.922c0.407,0.228,0.437,0.581,0.067,0.789l-4.792,2.692
										C312.038,311.875,311.408,311.859,311.002,311.631z"/>
									<path style="fill:#3E3D4D;" d="M320.138,316.751l-7-3.923c-0.407-0.228-0.437-0.581-0.066-0.789l4.792-2.693
										c0.37-0.208,1.001-0.191,1.407,0.037l6.999,3.922c0.407,0.228,0.437,0.582,0.066,0.79l-4.792,2.692
										C321.174,316.995,320.544,316.979,320.138,316.751z"/>
									<path style="fill:#3E3D4D;" d="M332.717,323.801l-10.444-5.853c-0.407-0.228-0.437-0.581-0.066-0.789l4.792-2.692
										c0.37-0.208,1-0.191,1.407,0.036l10.444,5.852c0.407,0.228,0.436,0.582,0.066,0.79l-4.792,2.692
										C333.754,324.045,333.124,324.029,332.717,323.801z"/>
									<path style="fill:#A7A3A6;" d="M268.177,328.968l-43.027-24.112c-1.902-1.066-2.041-2.718-0.311-3.69l24.429-13.724
										c1.73-0.972,4.675-0.896,6.577,0.17l43.027,24.112c1.902,1.066,2.041,2.719,0.311,3.691l-24.429,13.724
										C273.024,330.11,270.079,330.034,268.177,328.968z"/>
									<path style="fill:#3E3D4D;" d="M276.005,221.87l-12.267-6.875c-0.794-0.445-2.022-0.476-2.744-0.071l0,0
										c-0.722,0.405-0.664,1.095,0.13,1.539l12.267,6.874c0.793,0.445,2.022,0.477,2.743,0.071l0,0
										C276.857,223.004,276.799,222.315,276.005,221.87z"/>
								</g>
							</g>
						</g>
					</g>
					<g style="opacity:0.61;">
						<g>
							<polygon style="fill:#257EBC;fill-opacity:0.2;" points="274.85,85.314 442.788,179.971 442.777,178.831 274.768,84.157 
															"/>
							<g>
								<g>
									<g>
										<g>
											<path style="opacity:0.2;fill:#257EBC;enable-background:new    ;" d="M433.195,167.85
												c-0.727-0.414-1.308-0.07-1.295,0.767c0.013,0.836,0.594,1.819,1.321,2.232c0.727,0.414,1.308,0.07,1.295-0.766
												S433.922,168.264,433.195,167.85z"/>
										</g>
									</g>
								</g>
								<g>
									<g>
										<g>
											<path style="opacity:0.2;fill:#257EBC;enable-background:new    ;" d="M429.294,165.335
												c-0.727-0.414-1.308-0.07-1.295,0.766c0.013,0.837,0.594,1.819,1.295,2.188c0.727,0.413,1.308,0.07,1.295-0.767
												C430.577,166.686,430.021,165.749,429.294,165.335z"/>
										</g>
									</g>
								</g>
								<g>
									<g>
										<g>
											<path style="opacity:0.2;fill:#257EBC;enable-background:new    ;" d="M425.3,162.747
												c-0.727-0.414-1.308-0.07-1.295,0.767c0.013,0.837,0.594,1.819,1.322,2.233c0.727,0.414,1.308,0.07,1.295-0.766
												C426.609,164.143,426.028,163.161,425.3,162.747z"/>
										</g>
									</g>
								</g>
							</g>
						</g>
						<g style="display:none;">
							<path style="display:inline;fill:#372F6D;" d="M329.873,97.685l1.144,142.112c0.032,2.091,1.539,4.637,3.357,5.671
								l139.287,78.435c1.818,1.034,3.292,0.162,3.305-1.956l-1.144-142.112L329.873,97.685z"/>
						</g>
						<path style="fill:#9BD3E7;" d="M304.614,211.594l-24.935-12.762c-2.107-1.208-5.13-3.664-4.898-11.883l-0.286-103.042
							l29.83,17.208L304.614,211.594z"/>
						<path style="opacity:0.9608;fill:#E8F5FF;enable-background:new    ;" d="M293.18,116.716c0.004-0.564-0.39-1.256-0.883-1.543
							l-13.31-7.843c-0.254-0.148-0.496-0.17-0.686-0.062c-0.187,0.107-0.292,0.326-0.293,0.616
							c-0.002,0.287,0.099,0.607,0.264,0.888c0.16,0.274,0.378,0.513,0.62,0.654l13.309,7.844c0.253,0.147,0.496,0.17,0.685,0.062
							C293.073,117.226,293.178,117.007,293.18,116.716z"/>
						<path style="opacity:0.9608;fill:#E8F5FF;enable-background:new    ;" d="M293.166,121.614
							c0.004-0.564-0.391-1.256-0.883-1.543l-13.31-7.843c-0.254-0.148-0.496-0.17-0.686-0.062
							c-0.187,0.107-0.292,0.326-0.293,0.616c-0.002,0.287,0.099,0.607,0.264,0.888c0.159,0.274,0.378,0.513,0.62,0.654
							l13.309,7.844c0.253,0.147,0.496,0.17,0.685,0.063C293.06,122.123,293.165,121.904,293.166,121.614z"/>
						<path style="opacity:0.9608;fill:#E8F5FF;enable-background:new    ;" d="M293.176,126.619
							c0.004-0.564-0.391-1.256-0.883-1.543l-13.31-7.843c-0.254-0.148-0.496-0.17-0.686-0.062
							c-0.187,0.107-0.292,0.326-0.293,0.616c-0.002,0.287,0.099,0.607,0.264,0.888c0.159,0.274,0.378,0.513,0.62,0.654
							l13.309,7.844c0.253,0.147,0.497,0.17,0.685,0.063C293.069,127.128,293.174,126.909,293.176,126.619z"/>
						<path style="opacity:0.9608;fill:#E8F5FF;enable-background:new    ;" d="M293.187,131.525
							c0.004-0.564-0.39-1.256-0.883-1.543l-13.31-7.843c-0.253-0.148-0.496-0.17-0.686-0.062c-0.187,0.107-0.292,0.326-0.293,0.616
							c-0.002,0.286,0.099,0.607,0.264,0.888c0.16,0.274,0.378,0.513,0.62,0.654l13.309,7.844c0.253,0.147,0.497,0.17,0.685,0.062
							C293.08,132.034,293.185,131.815,293.187,131.525z"/>
						<path style="opacity:0.9608;fill:#E8F5FF;enable-background:new    ;" d="M293.196,136.553
							c0.004-0.564-0.391-1.256-0.883-1.543l-13.31-7.843c-0.254-0.148-0.496-0.17-0.686-0.062
							c-0.187,0.107-0.292,0.326-0.293,0.616c-0.002,0.287,0.099,0.607,0.264,0.888c0.159,0.274,0.378,0.513,0.62,0.654
							l13.309,7.844c0.253,0.147,0.496,0.17,0.685,0.063C293.09,137.063,293.195,136.844,293.196,136.553z"/>
						<path style="opacity:0.9608;fill:#E8F5FF;enable-background:new    ;" d="M293.198,141.465
							c0.004-0.564-0.391-1.256-0.883-1.543l-13.31-7.843c-0.254-0.148-0.496-0.17-0.686-0.062
							c-0.187,0.107-0.291,0.326-0.293,0.616c-0.002,0.287,0.099,0.607,0.264,0.888c0.159,0.274,0.378,0.513,0.62,0.654
							l13.309,7.844c0.253,0.147,0.496,0.17,0.685,0.063C293.091,141.975,293.196,141.755,293.198,141.465z"/>
						<path style="opacity:0.9608;fill:#E8F5FF;enable-background:new    ;" d="M293.216,146.45
							c0.004-0.564-0.391-1.256-0.883-1.543l-13.31-7.843c-0.254-0.148-0.496-0.17-0.686-0.062
							c-0.187,0.107-0.292,0.326-0.293,0.616c-0.002,0.287,0.099,0.607,0.264,0.888c0.16,0.274,0.378,0.513,0.62,0.654l13.309,7.844
							c0.253,0.147,0.497,0.17,0.685,0.063C293.109,146.959,293.214,146.74,293.216,146.45z"/>
						<path style="opacity:0.9608;fill:#E8F5FF;enable-background:new    ;" d="M293.201,151.371
							c0.004-0.564-0.391-1.256-0.883-1.543l-13.31-7.843c-0.254-0.148-0.496-0.17-0.686-0.062
							c-0.187,0.107-0.292,0.326-0.293,0.616c-0.002,0.287,0.099,0.607,0.264,0.888c0.159,0.274,0.378,0.513,0.62,0.654
							l13.309,7.844c0.253,0.147,0.496,0.17,0.685,0.063C293.095,151.88,293.2,151.661,293.201,151.371z"/>
						<path style="opacity:0.9608;fill:#E8F5FF;enable-background:new    ;" d="M293.222,156.225
							c0.004-0.564-0.391-1.256-0.883-1.543l-13.31-7.843c-0.254-0.148-0.496-0.17-0.686-0.062
							c-0.187,0.107-0.292,0.326-0.293,0.616c-0.002,0.287,0.099,0.607,0.264,0.888c0.159,0.274,0.378,0.513,0.62,0.654
							l13.309,7.844c0.253,0.147,0.496,0.17,0.685,0.063C293.116,156.735,293.221,156.516,293.222,156.225z"/>
						<path style="opacity:0.9608;fill:#E8F5FF;enable-background:new    ;" d="M293.239,161.22
							c0.004-0.564-0.391-1.256-0.883-1.543l-13.31-7.843c-0.254-0.148-0.496-0.17-0.686-0.062
							c-0.187,0.107-0.292,0.326-0.293,0.616c-0.002,0.287,0.099,0.607,0.264,0.888c0.159,0.274,0.378,0.513,0.62,0.654
							l13.309,7.844c0.253,0.147,0.496,0.17,0.685,0.063C293.133,161.729,293.237,161.51,293.239,161.22z"/>
						<path style="opacity:0.9608;fill:#E8F5FF;enable-background:new    ;" d="M293.249,166.127
							c0.004-0.564-0.39-1.256-0.883-1.543l-13.31-7.843c-0.253-0.148-0.496-0.17-0.686-0.062c-0.187,0.107-0.292,0.326-0.293,0.616
							c-0.002,0.287,0.099,0.607,0.264,0.888c0.16,0.274,0.378,0.513,0.62,0.654l13.309,7.844c0.253,0.147,0.496,0.17,0.685,0.062
							C293.142,166.637,293.247,166.418,293.249,166.127z"/>
						<path style="opacity:0.9608;fill:#E8F5FF;enable-background:new    ;" d="M301.316,110.918
							c0.004-0.564-0.391-1.256-0.883-1.543l-20.902-12.257c-0.254-0.148-0.496-0.17-0.686-0.062
							c-0.187,0.107-0.292,0.326-0.293,0.616c-0.002,0.287,0.099,0.606,0.264,0.888c0.159,0.274,0.378,0.513,0.62,0.654
							l20.901,12.257c0.253,0.147,0.497,0.17,0.685,0.063C301.209,111.427,301.314,111.208,301.316,110.918z"/>
						<g>
							<path style="fill:#9BD3E7;" d="M313.399,148.995c0.003-0.425-0.295-0.945-0.664-1.16c-0.191-0.111-0.374-0.128-0.516-0.047
								c-0.141,0.08-0.219,0.245-0.221,0.464c-0.001,0.216,0.075,0.456,0.198,0.669c0.12,0.206,0.284,0.385,0.466,0.491
								c0.191,0.111,0.374,0.128,0.516,0.047C313.319,149.378,313.398,149.213,313.399,148.995z"/>
							<path style="fill:#9BD3E7;" d="M324.581,155.465c0.003-0.435-0.302-0.97-0.682-1.191l-9.378-5.476
								c-0.196-0.114-0.383-0.131-0.53-0.048c-0.145,0.082-0.225,0.252-0.227,0.476c-0.001,0.221,0.076,0.468,0.204,0.686
								c0.123,0.212,0.292,0.396,0.479,0.505l9.377,5.476c0.196,0.114,0.383,0.131,0.529,0.048
								C324.499,155.858,324.579,155.689,324.581,155.465z"/>
							<path style="fill:#9BD3E7;" d="M322.639,159.857c0.003-0.435-0.302-0.97-0.682-1.191l-10.278-6.057
								c-0.196-0.114-0.383-0.131-0.53-0.048c-0.144,0.083-0.225,0.252-0.226,0.476c-0.002,0.221,0.076,0.468,0.203,0.686
								c0.123,0.212,0.292,0.396,0.479,0.505l10.278,6.057c0.196,0.114,0.383,0.131,0.529,0.048
								C322.557,160.25,322.638,160.081,322.639,159.857z"/>
							<path style="fill:#9BD3E7;" d="M322.629,162.16c0.003-0.435-0.302-0.97-0.682-1.192l-10.278-6.057
								c-0.196-0.114-0.383-0.131-0.53-0.048c-0.144,0.083-0.225,0.252-0.227,0.476c-0.001,0.221,0.076,0.468,0.204,0.686
								c0.123,0.212,0.292,0.396,0.479,0.505l10.278,6.057c0.196,0.114,0.383,0.131,0.529,0.048
								C322.547,162.553,322.628,162.384,322.629,162.16z"/>
							<path style="fill:#9BD3E7;" d="M322.636,164.546c0.003-0.435-0.301-0.97-0.682-1.192l-10.278-6.057
								c-0.196-0.114-0.383-0.131-0.53-0.048c-0.144,0.083-0.225,0.251-0.227,0.476c-0.001,0.221,0.076,0.468,0.204,0.686
								c0.123,0.212,0.292,0.396,0.479,0.505l10.278,6.057c0.196,0.114,0.383,0.131,0.529,0.048
								C322.554,164.939,322.635,164.77,322.636,164.546z"/>
							<path style="fill:#9BD3E7;" d="M322.645,166.856c0.003-0.435-0.302-0.97-0.682-1.192l-10.278-6.057
								c-0.196-0.114-0.383-0.131-0.53-0.048c-0.144,0.083-0.225,0.252-0.227,0.476c-0.002,0.221,0.076,0.468,0.204,0.686
								c0.123,0.212,0.292,0.396,0.479,0.505l10.278,6.057c0.196,0.114,0.383,0.131,0.529,0.048
								C322.563,167.249,322.643,167.08,322.645,166.856z"/>
							<path style="fill:#9BD3E7;" d="M322.652,169.26c0.003-0.435-0.302-0.97-0.682-1.191l-10.278-6.057
								c-0.196-0.114-0.383-0.131-0.53-0.048c-0.145,0.083-0.225,0.251-0.227,0.476c-0.002,0.221,0.076,0.469,0.204,0.686
								c0.123,0.212,0.292,0.396,0.479,0.505l10.277,6.057c0.196,0.114,0.383,0.131,0.529,0.048
								C322.57,169.653,322.651,169.484,322.652,169.26z"/>
							<path style="fill:#9BD3E7;" d="M322.653,171.574c0.003-0.435-0.302-0.97-0.682-1.191l-10.278-6.057
								c-0.196-0.114-0.383-0.131-0.53-0.048c-0.144,0.083-0.225,0.252-0.226,0.476c-0.002,0.221,0.076,0.469,0.203,0.686
								c0.123,0.212,0.292,0.396,0.479,0.505l10.278,6.057c0.196,0.114,0.383,0.131,0.529,0.048
								C322.571,171.967,322.652,171.798,322.653,171.574z"/>
							<path style="fill:#9BD3E7;" d="M322.667,173.944c0.003-0.435-0.302-0.97-0.682-1.191l-10.278-6.057
								c-0.196-0.114-0.383-0.131-0.53-0.048c-0.144,0.083-0.225,0.252-0.226,0.476c-0.002,0.221,0.076,0.469,0.203,0.686
								c0.123,0.212,0.292,0.396,0.479,0.505l10.277,6.057c0.196,0.114,0.383,0.131,0.529,0.048
								C322.585,174.338,322.666,174.169,322.667,173.944z"/>
							<path style="fill:#9BD3E7;" d="M322.656,176.266c0.003-0.435-0.302-0.97-0.682-1.192l-10.278-6.057
								c-0.196-0.114-0.383-0.131-0.53-0.048c-0.144,0.083-0.225,0.252-0.227,0.476c-0.001,0.221,0.076,0.468,0.204,0.686
								c0.123,0.212,0.292,0.396,0.479,0.505l10.277,6.057c0.196,0.114,0.383,0.131,0.529,0.048
								C322.574,176.659,322.655,176.49,322.656,176.266z"/>
							<path style="fill:#9BD3E7;" d="M322.672,178.536c0.003-0.435-0.302-0.97-0.682-1.192l-10.278-6.057
								c-0.196-0.114-0.383-0.131-0.53-0.048c-0.144,0.082-0.225,0.251-0.226,0.476c-0.002,0.221,0.076,0.468,0.203,0.686
								c0.123,0.212,0.292,0.396,0.479,0.505l10.278,6.057c0.196,0.114,0.383,0.131,0.529,0.048
								C322.59,178.929,322.671,178.76,322.672,178.536z"/>
							<path style="fill:#9BD3E7;" d="M322.685,180.914c0.003-0.435-0.302-0.97-0.682-1.192l-10.278-6.057
								c-0.196-0.114-0.383-0.131-0.53-0.048c-0.144,0.083-0.225,0.252-0.227,0.476c-0.001,0.221,0.076,0.468,0.204,0.686
								c0.123,0.212,0.292,0.396,0.479,0.505l10.278,6.057c0.196,0.114,0.383,0.131,0.529,0.048
								C322.603,181.307,322.684,181.138,322.685,180.914z"/>
							<path style="fill:#9BD3E7;" d="M322.692,183.224c0.003-0.435-0.301-0.97-0.682-1.191l-10.278-6.057
								c-0.196-0.114-0.383-0.131-0.53-0.048c-0.144,0.083-0.225,0.252-0.226,0.476c-0.002,0.221,0.076,0.469,0.204,0.686
								c0.123,0.212,0.292,0.396,0.479,0.505l10.278,6.057c0.196,0.114,0.383,0.131,0.529,0.048
								C322.61,183.618,322.691,183.449,322.692,183.224z"/>
							<path style="fill:#78B3C2;" d="M311.86,122.026c0.003-0.425-0.295-0.945-0.664-1.16c-0.191-0.111-0.374-0.128-0.516-0.047
								c-0.141,0.08-0.22,0.245-0.221,0.464c-0.001,0.216,0.075,0.456,0.198,0.669c0.12,0.206,0.284,0.385,0.466,0.491
								c0.191,0.111,0.374,0.128,0.516,0.047C311.78,122.409,311.859,122.244,311.86,122.026z"/>
							<path style="fill:#78B3C2;" d="M329.805,132.485c0.003-0.435-0.302-0.97-0.682-1.191l-16.141-9.465
								c-0.196-0.114-0.383-0.131-0.53-0.048c-0.144,0.082-0.225,0.251-0.227,0.476c-0.001,0.221,0.076,0.468,0.204,0.686
								c0.123,0.212,0.292,0.396,0.479,0.505l16.141,9.465c0.196,0.114,0.383,0.131,0.529,0.048
								C329.723,132.878,329.803,132.709,329.805,132.485z"/>
							<path style="fill:#78B3C2;" d="M418.393,237.845c0.003-0.435-0.301-0.97-0.682-1.191l-10.278-6.057
								c-0.196-0.114-0.383-0.131-0.53-0.048c-0.144,0.083-0.225,0.251-0.226,0.476c-0.001,0.221,0.076,0.468,0.204,0.686
								c0.123,0.212,0.292,0.396,0.479,0.505l10.278,6.057c0.196,0.114,0.383,0.131,0.529,0.048
								C418.311,238.238,418.392,238.069,418.393,237.845z"/>
							<path style="fill:#78B3C2;" d="M420.263,241.993c0.003-0.435-0.302-0.97-0.682-1.192l-12.361-7.256
								c-0.196-0.114-0.383-0.131-0.53-0.048c-0.144,0.082-0.225,0.251-0.227,0.476c-0.001,0.222,0.076,0.469,0.204,0.686
								c0.123,0.212,0.292,0.396,0.479,0.505l12.36,7.257c0.196,0.114,0.383,0.131,0.529,0.048
								C420.181,242.386,420.262,242.217,420.263,241.993z"/>
							<path style="fill:#78B3C2;" d="M418.574,260.504c0.003-0.435-0.302-0.97-0.682-1.191l-10.278-6.057
								c-0.196-0.114-0.383-0.131-0.53-0.048c-0.145,0.083-0.225,0.252-0.227,0.476c-0.001,0.221,0.076,0.468,0.203,0.686
								c0.123,0.212,0.292,0.396,0.479,0.505l10.278,6.057c0.196,0.114,0.383,0.131,0.529,0.048
								C418.492,260.897,418.572,260.728,418.574,260.504z"/>
							<path style="fill:#78B3C2;" d="M349.131,175.675c0.004-0.637-0.441-1.42-0.998-1.744l-10.927-6.269
								c-0.287-0.167-0.561-0.192-0.775-0.07c-0.211,0.121-0.33,0.368-0.332,0.697c-0.002,0.324,0.112,0.686,0.298,1.004
								c0.18,0.31,0.427,0.58,0.701,0.74l10.926,6.269c0.286,0.166,0.561,0.192,0.774,0.071
								C349.011,176.251,349.129,176.003,349.131,175.675z"/>
							<path style="fill:#9BD3E7;" d="M324.813,151.645c0.004-0.637-0.441-1.42-0.998-1.744l-10.927-6.269
								c-0.287-0.167-0.561-0.192-0.775-0.07c-0.211,0.121-0.33,0.368-0.332,0.697c-0.002,0.324,0.112,0.686,0.298,1.004
								c0.18,0.31,0.427,0.58,0.701,0.74l10.926,6.269c0.286,0.167,0.561,0.192,0.774,0.071
								C324.693,152.221,324.811,151.973,324.813,151.645z"/>
							<path style="fill:#78B3C2;" d="M364.56,184.533c0.004-0.637-0.441-1.42-0.998-1.744l-10.927-6.269
								c-0.287-0.167-0.561-0.192-0.775-0.07c-0.211,0.121-0.33,0.368-0.332,0.696c-0.002,0.324,0.112,0.686,0.298,1.004
								c0.18,0.31,0.427,0.58,0.701,0.74l10.926,6.269c0.286,0.167,0.561,0.192,0.774,0.071
								C364.44,185.109,364.558,184.862,364.56,184.533z"/>
							<path style="fill:#78B3C2;" d="M379.983,193.301c0.004-0.637-0.441-1.42-0.998-1.744l-10.927-6.269
								c-0.287-0.167-0.561-0.192-0.775-0.07c-0.211,0.121-0.33,0.368-0.332,0.696c-0.002,0.324,0.112,0.686,0.298,1.004
								c0.18,0.31,0.427,0.58,0.701,0.74l10.926,6.269c0.286,0.167,0.561,0.192,0.774,0.071
								C379.863,193.876,379.982,193.629,379.983,193.301z"/>
							<path style="fill:#78B3C2;" d="M395.088,202.008c0.004-0.637-0.441-1.42-0.998-1.744l-10.927-6.269
								c-0.287-0.167-0.561-0.192-0.775-0.07c-0.211,0.121-0.33,0.368-0.331,0.697c-0.002,0.324,0.112,0.686,0.298,1.004
								c0.18,0.31,0.427,0.58,0.701,0.739l10.926,6.269c0.286,0.166,0.561,0.192,0.774,0.071
								C394.968,202.584,395.086,202.336,395.088,202.008z"/>
							<path style="fill:#9BD3E7;" d="M408.132,237.63c-0.728-0.42-1.324-0.075-1.326,0.765l-0.014,11.695
								c-0.001,0.694,0.491,1.545,1.092,1.891l16.149,9.301c0.573,0.33,1.288-0.083,1.289-0.744l0.013-11.9
								c0.001-0.603-0.426-1.343-0.949-1.644L408.132,237.63z M425.051,261.562"/>
							<path style="fill:#C9E5EA;" d="M408.192,214.992c-0.728-0.42-1.324-0.075-1.325,0.765l-0.014,11.695
								c-0.001,0.694,0.49,1.545,1.092,1.891l16.149,9.301c0.573,0.33,1.288-0.083,1.289-0.744l0.014-11.9
								c0.001-0.603-0.426-1.343-0.949-1.644L408.192,214.992z M425.112,238.924"/>
							<path style="fill:#9BD3E7;" d="M383.452,200.641c-0.728-0.419-1.324-0.075-1.326,0.765l-0.01,19.207
								c-0.001,0.694,0.49,1.545,1.092,1.891l16.149,9.301c0.573,0.33,1.288-0.083,1.289-0.744l0.01-19.411
								c0.001-0.603-0.426-1.343-0.949-1.644L383.452,200.641z M400.375,232.084"/>
							<path style="fill:#78B3C2;" d="M379.656,240.593l0.02-39.615c0.002-1.441-1.019-3.209-2.268-3.929l-38.847-22.382
								c-1.74-1.002-3.166-0.18-3.168,1.828l-0.021,38.8 M379.008,249.818"/>
							<path style="fill:#9BD3E7;" d="M400.652,252.921l0.009-16.706c0-0.608-0.43-1.354-0.956-1.657l-16.383-9.439
								c-0.734-0.423-1.335-0.076-1.336,0.771l-0.009,16.363 M400.378,256.811"/>
							<path style="fill:#78B3C2;" d="M323.827,142.597L323.827,142.597l-0.165-10.631c-0.006-0.395-0.221-0.763-0.563-0.962
								l-9.045-5.257c-0.356-0.207-0.781-0.207-1.137-0.001c-0.356,0.207-0.567,0.576-0.564,0.988l0.08,10.605
								c0.002,0.199,0.057,0.392,0.154,0.56c0.098,0.168,0.239,0.311,0.411,0.411l9.13,5.283c0.358,0.207,0.783,0.206,1.14-0.003
								C323.624,143.382,323.833,143.01,323.827,142.597z"/>
							<path style="fill:#C9E5EA;" d="M425.541,210.742C425.54,210.741,425.54,210.741,425.541,210.742l-0.219-23.546
								c-0.023-1.508-0.844-2.923-2.143-3.69l-82.981-49.113c-0.931-0.55-2.047-0.559-2.987-0.025
								c-0.939,0.534-1.501,1.498-1.505,2.578l-0.007,24.236c-0.003,0.787,0.209,1.547,0.592,2.207
								c0.38,0.654,0.93,1.208,1.608,1.596l83.906,47.963c0.788,0.45,1.725,0.444,2.508-0.018
								C425.096,212.467,425.554,211.65,425.541,210.742z"/>
						</g>
					</g>
					<g>
						<g>
							<path style="fill:#803528;" d="M275.215,174.2c0,0-0.94,5.061,0.026,6.353c-10.66,8.938-15.449,1.041-16.313,0.176
								c0,0,1.578-1.946,1.388-5.303C260.317,175.426,274.265,174.749,275.215,174.2z"/>
							<path style="opacity:0.07;fill:#030303;" d="M260.881,176.793c0,0,6.395,1.117,10.353,0.305c0,0-4.042,1.988-10.981,1.305
								L260.881,176.793z"/>
							<g>
								<g>
									<g>
										<path style="fill:#803528;" d="M275.544,135.895c0,0,3.918,0.932,8.026,3.33c4.212,2.46,8.622,6.458,9.216,12.574
											c0.343,3.521,0.039,6.925-0.894,10.044c-2.268,7.579-8.262,13.472-17.794,15.265c-6.727,1.265-14.011,0.338-19.428-3.642
											c-5.416-3.979-8.659-12.422-7.314-19.456c1.346-7.033,4.579-10.765,9.573-14.018
											C261.923,136.737,268.374,135.373,275.544,135.895z"/>
										<path style="fill:#001913;" d="M281.508,166.711c-2.221,2.221-5.771,2.658-8.118,0.311
											c-2.346-2.347-3.107-4.432-5.709-5.023c-5.583-1.268-8.659-1.079-11.452,1.195c-1.951,1.588-7.405,0.505-7.922-1.859
											c-0.517-2.366-1.254,0.85-1.254,0.85s0.749,5.437,3.397,9.786c1.867,3.067,8.413,9.267,17.979,8.555
											c9.55-0.711,15.769-4.646,17.067-11.587c1.298-6.94,0.915-7.604,0.915-7.604s-1.904-0.758-2.416,0.965
											C283.515,163.91,282.432,165.786,281.508,166.711z"/>
										<g>
											<path style="opacity:0.21;fill:#030303;" d="M264.784,161.335c-0.014,0-0.028,0-0.041-0.001
												c-0.064-0.007-0.634-0.059-1.003-0.164c-0.891-0.256-1.207-0.728-1.317-1.079c-0.115-0.363-0.118-0.957,0.508-1.727
												c0.556-0.684,0.653-2.066,0.644-2.541c-0.007-0.251,0.193-0.46,0.444-0.464c0.004,0,0.008,0,0.011,0
												c0.246,0,0.448,0.197,0.455,0.445c0.001,0.083,0.035,2.052-0.847,3.137c-0.286,0.351-0.413,0.671-0.347,0.878
												c0.062,0.195,0.31,0.363,0.7,0.475c0.24,0.07,0.681,0.119,0.831,0.133c0.249,0.021,0.436,0.242,0.415,0.493
												C265.217,161.156,265.018,161.335,264.784,161.335z"/>
										</g>
										<path style="fill:#001913;" d="M255.038,156.689c-0.034,0.932,0.472,1.705,1.13,1.728c0.657,0.024,1.217-0.71,1.252-1.64
											c0.034-0.932-0.473-1.705-1.13-1.728C255.634,155.025,255.073,155.759,255.038,156.689z"/>
										<path style="fill:#001913;" d="M273.391,157.397c-0.032,0.93,0.472,1.704,1.13,1.728c0.657,0.024,1.218-0.712,1.253-1.642
											c0.032-0.929-0.473-1.703-1.132-1.727C273.985,155.733,273.425,156.467,273.391,157.397z"/>
										<path style="opacity:0.07;fill:#030303;" d="M274.813,163.58c0.041,2.273,1.917,4.081,4.189,4.041
											c2.273-0.042,4.083-1.918,4.041-4.191c-0.042-2.273-1.918-4.082-4.191-4.04
											C276.579,159.432,274.771,161.307,274.813,163.58z"/>
										<path style="opacity:0.07;fill:#030303;" d="M249.29,165.981c0.357,0.094,0.732,0.14,1.119,0.133
											c2.273-0.041,4.081-1.917,4.041-4.19c-0.042-2.273-1.917-4.081-4.189-4.041c-0.525,0.01-1.025,0.117-1.482,0.305
											c0,0-0.235,2.719,0.02,4.624C249.052,164.717,249.29,165.981,249.29,165.981z"/>
										<g>
											<path style="fill:#FBFDFF;" d="M261.891,163.446c0.282,1.154,1.15,2.104,2.352,2.313c1.375,0.238,2.59-0.546,3.418-1.576
												C268.101,163.634,261.721,162.761,261.891,163.446z"/>
										</g>
									</g>
								</g>
								<g>
									<path style="fill:#001913;" d="M256.229,136.091c0.283-0.282,0.794,0.086,1.193,0.086c4.8,0,17.568-3.39,25.093-0.391
										c7.526,3,12.408,10.981,12.408,18.561c0,7.579-5.089,14.352-7.051,15.072c1.824-3.16,3.179-6.352,1.105-6.798
										c-2.891-0.621-3.482,6.319-3.482,6.319s-4.433-0.373-2.98-1.824c1.452-1.452,3.241-11.88-1.146-12.985
										c-11.718-2.951-22.768-13.323-29.803-3.939c-5.769,7.693-1.5,18.019-1.5,18.019c-6.666-7.07-1.387-19.927-1.387-19.927
										S251.897,140.422,256.229,136.091z"/>
									<path style="fill:#001913;" d="M294.923,151.347c0,0,3.283-3.766,1.293-7.213c-1.99-3.447-5.977-2.572-5.977-2.572
										s1.975-3.394-0.861-6.23c-2.836-2.836-6.863,0.454-6.863,0.454s0.854-4.383-3.587-6.947
										c-3.422-1.976-7.501,0.413-9.194,1.613c-2.125-1.556-4.553-2.84-6.802-2.84c-5.706,0-6.703,4.888-6.703,4.888
										c-6.745,0-7.555,5.464-6.83,8.662c-0.462,0.215-0.968,0.509-1.513,0.92c-2.492,1.878-3.825,6.135-1.77,9.696
										c2.056,3.562,2.563,1.61,2.563,1.61l7.942-10.922l-0.248-0.097l17.302-5.844l7.372,8.489l10.578,15.906
										c0,0,4.729-1.088,5.14-5.165C297.104,152.41,294.923,151.347,294.923,151.347z"/>
								</g>
							</g>
						</g>
						<g>
							<g>
								<g>
									<path style="fill:#112028;" d="M253.769,305.155c-1.034,0.365-6.54,2.223-7.276,2.395
										c-1.677,0.391-3.152,0.917-3.064,2.554c0.113,2.102,2.622,2.656,4.405,2.591c5.1-0.186,9.527-1.494,9.527-1.494
										s1.948-0.327,3.252-0.458c1.556-0.156,1.808-1.179,1.808-1.179s0.172-1.455,0.105-2.334
										c-0.047-0.613-0.455-1.63-0.455-1.63s-0.837,0.697-2.927,1.365c-2.09,0.669-2.034-0.398-2.932-1.05
										C254.829,304.911,253.769,305.155,253.769,305.155z"/>
									<path style="fill:#FFFFFF;" d="M262.072,305.599c0.16,0.857-1.485,1.938-4.85,1.951c-0.647-2.281-3.452-2.395-3.452-2.395
										s0.391-0.069,1.419-0.852c1.338-1.017,0.483-5.35,0.483-5.35s5.595-0.855,5.841,2.123
										C261.79,304.429,262.072,305.599,262.072,305.599z"/>
								</g>
								<g>
									<path style="fill:#112028;" d="M268.484,311.797c-0.943,0.56-5.981,3.456-6.669,3.768
										c-1.568,0.711-2.912,1.514-2.507,3.103c0.521,2.04,3.09,2.093,4.826,1.681c4.965-1.178,9.052-3.324,9.052-3.324
										s1.847-0.701,3.1-1.084c1.496-0.457,1.543-1.509,1.543-1.509s-0.115-1.461-0.352-2.31c-0.165-0.592-0.764-1.51-0.764-1.51
										s-0.685,0.847-2.605,1.91c-1.919,1.064-2.073,0.007-3.081-0.457C269.476,311.351,268.484,311.797,268.484,311.797z"/>
									<path style="fill:#FFFFFF;" d="M277.309,311.727c0.16,0.857-1.485,1.938-4.85,1.951c-0.647-2.281-3.816-1.933-3.816-1.933
										s0.754-0.531,1.783-1.313c1.338-1.017,0.483-5.35,0.483-5.35s5.595-0.855,5.841,2.123
										C277.027,310.556,277.309,311.727,277.309,311.727z"/>
								</g>
								<g>
									<path style="fill:#182D3B;" d="M263.283,277.672c0,0,3.397,29.458,4.027,33.11c0.247,1.429,10.688,1.707,11.607,0.041
										l0.477-36.486c0,0,5.694-24.687,3.383-37.173c0-1.491-30.797-5.161-31.712-1.906c-2.329,8.281-3.433,26.006-2.756,35.482
										c0.497,6.96,5.107,33.142,5.46,34.416c2.547,2.785,9.294,1.343,9.285-0.026"/>
									<path style="opacity:0.43;fill:#11232C;" d="M262.721,273.574l-0.517-20.255c0,0-0.903,17.409-0.903,19.023
										c0,0.66,1.399,6.046,1.982,7.396c0.337,0.78,0-2.066,0-2.066L262.721,273.574z"/>
								</g>
							</g>
							<polygon style="opacity:0.1;fill:#2C2526;" points="252.888,196.303 253.179,203.605 252.337,205.034 							"/>
							<polygon style="opacity:0.43;fill:#11232C;" points="280.165,204.434 280.056,206.992 278.625,199.612 							"/>
							<g>
								<path style="opacity:0.43;fill:#11232C;" d="M249.36,244.463l1.705-12.233l8.373,2.045c0.123-1.695,0.187-2.763,0.187-2.763
									l23.666,4.107l-0.068,12.171C275.703,251.158,257.623,252.988,249.36,244.463z"/>
								<path style="fill:#FDD539;" d="M290.884,201.876c-0.574-5.726-1.168-9.722-4.667-14.197
									c-0.818-1.045-2.01-2.048-3.307-2.957c-0.005-0.004-0.008-0.011-0.013-0.015c-1.753-1.443-5.236-3.081-6.826-3.792
									c-0.515-0.233-0.829-0.363-0.829-0.363c-3.27,1.983-6.457,3.972-11.824,2.636c-3.031-0.755-4.202-2.985-4.202-2.985
									s-3.226,0.136-7.861,3.933c-5.39,4.416-6.969,17.943-6.754,19.166c0.854,4.855,6.628,1.267,6.628,1.267
									s-2.137,24.81-2.19,25.697c-0.443,7.457-0.673,10.163-0.404,12.307c13.628,12.012,35.548,3.49,35.548,3.49
									s0.31,0.43,0.373-4.41c0.091-6.991-1.03-19.085-1.279-24.181c-0.249-5.096-0.785-6.932,2.395-4.412
									C288.553,215.342,292.266,215.68,290.884,201.876z"/>
							</g>
							<g>
								<path style="fill:#E5322E;" d="M234.433,187.504c0,0-3.956,1.985-4.358,6.712
									C230.074,194.216,234.54,191.922,234.433,187.504z"/>
								<path style="fill:#FDD539;" d="M248.355,188.098l-3.818,8.522c0,0-9.667-8.679-10.104-9.116
									c-0.24,4.278-4.358,6.712-4.358,6.712s7.212,9.886,9.813,12.487c2.944,2.944,7.574,5.928,10.801,3.201
									c3.227-2.727,4.965-10.735,4.965-10.735L248.355,188.098z"/>
								<g>
									<path style="fill:#753027;" d="M224.543,186.042c-0.623-0.152-1.923-0.072-2.57-0.003c-0.647,0.069-0.851,0.227-0.796,0.53
										c0.055,0.304,0.475,0.493,0.859,0.479c0.384-0.013,3.674,0.4,5.053,1.056c0,0,0.436-3.219-0.866-3.768
										c-0.51-0.215-4.679,0.016-5.266,0.147c-0.587,0.131-0.572,0.527-0.397,0.78c0.262,0.38,1.604,0.082,2.87,0.19
										c1.307,0.111,2.111,0.81,2.111,0.81S225.166,186.194,224.543,186.042"/>
									<path style="fill:#803528;" d="M234.192,189.049c-0.199-0.344-4.085-4.632-5.257-5.309s-5.916-1.398-7.259-0.556
										c-0.711,0.446-0.484,1.039,0.66,1.039c1.143,0,3.117,0.052,3.871,1.371c0.307,0.538,0.812,1.958-0.091,2.367
										c-0.431,0.195-1.647,0.298-2.378,0.235c-0.932-0.081-1.206,0.412-0.888,0.893c0.459,0.693,2.907,0.392,3.842,1.009
										c2.089,1.378,5.053,2.793,5.053,2.793S233.867,190.86,234.192,189.049z"/>
								</g>
								<polygon style="fill:#EABC2A;" points="251.355,198.916 250.796,209.793 250.151,210.296 								"/>
							</g>
							<g>
								<path style="fill:#EABC2A;" d="M278.625,199.612c0,0,0.867,11.448-1.495,12.811c-1.729,0.998-18.434-0.831-18.434-0.831
									l-1.592,7.409c0,0,21.134,5.857,25.551,5.857c0.374,0,0.725-0.077,1.095-0.261c-0.068-1.155-0.491-1.92,0.028-2.527
									c3.287-3.85,7.425-12.485,6.54-18.267C289.675,199.612,278.625,199.612,278.625,199.612z"/>
								<path style="fill:#803528;" d="M253.501,210.466c0.267,0.351-0.337,1.225-0.773,1.161c-1.275-0.186-2.94-1.041-3.362-1.195
									c-0.561-0.205-1.057-0.656-1.407-0.454c-0.491,0.283-0.057,1.069,0.953,1.691c1.187,0.73,2.607,1.183,2.607,1.183
									s-0.167,0.312-1.318,0.01c-1.15-0.302-2.752-1.243-3.116-1.449c-0.364-0.205-0.865-0.234-1.071,0.032
									c-0.206,0.266-0.087,0.521,0.503,0.913c0.59,0.392,2.481,1.537,3.159,1.828c0.642,0.275,1.212,0.576,1.212,0.576
									s-1.431-0.228-2.75-0.776c-1.278-0.532-1.485-0.817-1.755-0.736c-0.307,0.093-0.51,0.532-0.008,0.953
									c0.502,0.421,2.219,1.139,2.764,1.397c0.519,0.246,1.281,0.421,1.281,0.421s-1.402-0.004-2.847-0.585
									c-0.458-0.184-0.729,0.212-0.385,0.555c0.345,0.343,3.294,1.432,4.707,1.432c0.908,0,3.566-0.458,3.566-0.458l2.843,0.224
									c0,0,2.624-1.908,1.898-3.994c-0.076-0.219-2.407-0.634-2.509-0.85c0,0-0.643-1.143-1.35-1.679
									c-0.113-0.086-0.486-0.36-0.716-0.528c0,0-2.135-1.991-2.485-2.117c-0.35-0.126-1.218,0.135-0.693,1.008
									C252.591,209.264,253.086,209.919,253.501,210.466z"/>
								<path style="fill:#FDD539;" d="M278.334,198.191c0,0,1.841,14.037,0.112,15.035c-1.729,0.998-18.748-1.632-19.75-1.632
									c0.337,3.07-1.381,6.878-1.381,6.878s22.971,5.652,27.388,5.652c4.416,0,8.942-6.699,5.703-26.242
									C289.196,190.584,278.334,198.191,278.334,198.191z"/>
							</g>
						</g>
					</g>
				</g>
				<g>
					<g>
						<path style="fill:#66A3B2;" d="M175.582,151.919c11.74,6.778,21.252,23.253,21.214,36.743
							c-0.038,13.483-9.612,18.946-21.352,12.168c-11.734-6.775-21.252-23.26-21.214-36.743
							C154.268,150.596,163.848,145.144,175.582,151.919z M175.45,198.4c10.575,6.105,19.202,1.189,19.237-10.955
							c0.035-12.151-8.537-26.997-19.112-33.103c-10.569-6.102-19.196-1.185-19.23,10.966
							C156.31,177.452,164.881,192.298,175.45,198.4"/>
					</g>
					<g>
						<path style="fill:#66A3B2;" d="M168.3,157.978c0.315,0.182,0.637,0.461,0.94,0.839l18.557,23.067
							c1.252,1.553,1.245,3.642-0.011,3.747l-18.627,1.599c-0.305,0.027-0.627-0.066-0.942-0.248
							c-0.984-0.568-1.887-1.995-1.883-3.263l0.07-24.659C166.408,157.792,167.316,157.41,168.3,157.978z"/>
					</g>
				</g>
				<path style="fill:#66A3B2;" d="M259.216,180.203c0,0,1.171,2.23,4.202,2.985c5.367,1.336,8.554-0.653,11.824-2.636l2.345,1.078
					c0,0-3.34,3.145-7.937,4.599s-8.581,0.124-10.877-2.172c-2.296-2.296-2.326-2.63-2.574-3.01
					C257.927,180.347,259.216,180.203,259.216,180.203z"/>
				<g>
					<g style="enable-background:new    ;">
						<g>
							<path style="fill:#DCE4F4;" d="M407.733,93.905c0.494,0.285,0.816,0.385,1.014,0.27l-3.323,1.931
								c-0.198,0.115-0.52,0.015-1.014-0.27c-1.86-1.074-3.721-2.148-5.581-3.222c-0.879-0.507-1.185-1.045-1.182-2.068
								c1.108-0.644,2.215-1.287,3.323-1.931c-0.003,1.024,0.303,1.561,1.182,2.068C404.012,91.757,405.873,92.831,407.733,93.905z"
								/>
						</g>
						<g>
							<path style="fill:#DCE4F4;" d="M410.618,95.141c0,0,0.001,0.001,0.001,0.001c-1.108,0.644-2.215,1.287-3.323,1.931
								c0,0-0.001-0.001-0.001-0.001c-0.493-0.403-0.655-0.718-0.648-1.268c1.108-0.644,2.215-1.287,3.323-1.931
								C409.963,94.423,410.125,94.738,410.618,95.141z"/>
						</g>
						<g>
							<path style="fill:#DCE4F4;" d="M410.619,95.142c1.076,0.885,2.128,1.88,3.192,2.82c-1.108,0.644-2.215,1.287-3.323,1.931
								c-1.064-0.94-2.116-1.935-3.192-2.82C408.404,96.429,409.512,95.786,410.619,95.142z"/>
						</g>
						<g>
							<path style="fill:#DCE4F4;" d="M401.006,75.801c-0.006,2.147-0.036,10.674-0.036,12.814
								c-1.108,0.644-2.215,1.287-3.323,1.931c0-0.002,0-0.004,0-0.006c1.106-0.643,2.211-1.285,3.317-1.928
								c-1.106,0.643-2.211,1.285-3.317,1.928c0-2.149,0.03-10.663,0.036-12.808C398.791,77.088,399.899,76.445,401.006,75.801z"/>
						</g>
						<g>
							<path style="fill:#DCE4F4;" d="M401.007,75.796c0,0.002,0,0.004,0,0.005c-1.108,0.644-2.215,1.287-3.323,1.931
								c0-0.002,0-0.004,0-0.005c0,0,0,0,0,0C398.791,77.083,399.899,76.439,401.007,75.796
								C401.007,75.795,401.007,75.795,401.007,75.796z"/>
						</g>
						<g>
							<path style="fill:#DCE4F4;" d="M401.269,74.857c-0.187,0.109-0.261,0.413-0.262,0.938c-1.108,0.644-2.215,1.287-3.323,1.931
								c0.001-0.525,0.075-0.83,0.262-0.938C398.943,76.209,400.272,75.436,401.269,74.857z"/>
						</g>
						<g>
							<path style="fill:#4B6FC6;" d="M397.946,76.788l3.323-1.931c0.19-0.11,0.497-0.019,0.964,0.247
								c1.878,1.085,3.757,2.169,5.635,3.253l-3.323,1.931c-1.878-1.085-3.757-2.169-5.635-3.253
								C398.443,76.769,398.136,76.678,397.946,76.788z"/>
						</g>
						<g>
							<path style="fill:#4B6FC6;" d="M408.747,94.175l-3.323,1.931c0.196-0.114,0.271-0.436,0.272-0.996
								c0.012-4.248,0.024-8.502,0.036-12.75c0.003-1.01-0.321-1.571-1.188-2.072l3.323-1.931c0.867,0.5,1.191,1.062,1.188,2.072
								c-0.012,4.248-0.024,8.502-0.036,12.75C409.018,93.739,408.943,94.061,408.747,94.175z"/>
						</g>
						<g>
							<path style="fill:#66A3B2;" d="M404.545,80.288c0.867,0.5,1.191,1.062,1.188,2.072c-0.012,4.248-0.024,8.502-0.036,12.75
								c-0.003,1.128-0.305,1.293-1.286,0.726c-1.86-1.074-3.721-2.148-5.581-3.222c-0.879-0.507-1.185-1.045-1.182-2.068
								c0-2.141,0.03-10.681,0.036-12.819c0.003-1.059,0.299-1.22,1.226-0.692C400.788,78.119,402.666,79.204,404.545,80.288z"/>
						</g>
						<g>
							<path style="fill:#DCE4F4;" d="M410.014,80.809c0.006,2.186-0.025,10.892-0.043,13.064c-1.108,0.644-2.215,1.287-3.323,1.931
								c0.018-2.172,0.049-10.878,0.043-13.065c0,0,0,0,0,0C407.798,82.096,408.906,81.452,410.014,80.809
								C410.014,80.809,410.014,80.809,410.014,80.809z"/>
						</g>
						<g>
							<path style="fill:#DCE4F4;" d="M410.168,80.314c-0.11,0.064-0.157,0.231-0.155,0.495c-1.108,0.644-2.215,1.287-3.323,1.931
								c-0.003-0.264,0.044-0.431,0.155-0.495C407.842,81.666,409.171,80.893,410.168,80.314z"/>
						</g>
						<g>
							<path style="fill:#DCE4F4;" d="M424.237,104.993c0.688,0.397,1.311,0.434,1.761,0.173l-3.323,1.931
								c-0.45,0.261-1.073,0.225-1.761-0.173c-0.025-0.014-0.743-0.422-1.751-1.004c-1.655-0.956-4.092-2.382-5.522-3.306
								c-1.065-0.684-2.105-1.798-3.152-2.721c0,0,0,0-0.001-0.001c1.108-0.644,2.215-1.287,3.323-1.931c0,0,0,0,0.001,0
								c1.047,0.923,2.087,2.036,3.152,2.721c1.429,0.924,3.866,2.35,5.522,3.306C423.494,104.57,424.212,104.978,424.237,104.993z"
								/>
						</g>
						<g>
							<path style="fill:#4B6FC6;" d="M425.998,105.165l-3.323,1.931c0.444-0.258,0.72-0.807,0.722-1.587
								c0.001-0.512-0.112-1.055-0.279-1.595l3.323-1.931c0.167,0.54,0.28,1.084,0.279,1.595
								C426.717,104.358,426.442,104.907,425.998,105.165z"/>
						</g>
						<g>
							<path style="fill:#4B6FC6;" d="M406.845,82.245l3.323-1.931c0.093-0.054,0.232-0.035,0.426,0.061
								c1.617,0.81,2.865,0.74,3.89,0.144l-3.323,1.931c-1.025,0.596-2.274,0.666-3.89-0.144
								C407.077,82.21,406.938,82.191,406.845,82.245z"/>
						</g>
						<g>
							<path style="fill:#DCE4F4;" d="M427.344,101.833l-3.323,1.931c-0.26,0.151-0.58,0.207-0.94,0.156l3.323-1.931
								C426.765,102.04,427.084,101.984,427.344,101.833z"/>
						</g>
						<g>
							<path style="fill:#4B6FC6;" d="M427.347,101.835l-3.323,1.931c0.443-0.257,0.718-0.805,0.72-1.588
								c0.001-0.443-0.088-0.91-0.243-1.374l3.323-1.931c0.155,0.464,0.245,0.931,0.243,1.374
								C428.065,101.03,427.79,101.578,427.347,101.835z"/>
						</g>
						<g>
							<path style="fill:#4B6FC6;" d="M424.658,100.659l3.323-1.931c-0.048,0.048-0.103,0.1-0.157,0.145l-3.323,1.931
								C424.556,100.759,424.61,100.708,424.658,100.659z"/>
						</g>
						<g>
							<path style="fill:#DCE4F4;" d="M428.276,98.602l-3.323,1.931c-0.092,0.053-0.19,0.096-0.295,0.126l3.323-1.931
								C428.086,98.698,428.184,98.656,428.276,98.602z"/>
						</g>
						<g>
							<polygon style="fill:#4B6FC6;" points="417.652,85.534 420.975,83.603 420.944,83.703 417.621,85.634 							"/>
						</g>
						<g>
							<polygon style="fill:#4B6FC6;" points="424.612,95.651 427.935,93.72 428.013,93.882 424.69,95.813 							"/>
						</g>
						<g>
							<polygon style="fill:#4B6FC6;" points="424.57,95.557 427.893,93.626 427.935,93.72 424.612,95.651 							"/>
						</g>
						<g>
							<path style="fill:#DCE4F4;" d="M415.637,79.551c-0.354,0.394-0.735,0.724-1.153,0.967l-3.323,1.931
								c0.418-0.243,0.799-0.573,1.153-0.967c0.883-0.987,1.436-2.338,1.85-3.838c0,0,0,0,0-0.001
								c1.108-0.644,2.215-1.287,3.323-1.931c0,0,0,0,0,0.001C417.073,77.214,416.521,78.565,415.637,79.551z"/>
						</g>
						<g>
							<path style="fill:#4B6FC6;" d="M428.276,98.602l-3.323,1.931c0.477-0.277,0.775-0.859,0.778-1.694
								c0.003-0.989-0.404-2.097-1.041-3.026l3.323-1.931c0.637,0.929,1.044,2.037,1.041,3.026
								C429.051,97.744,428.753,98.325,428.276,98.602z"/>
						</g>
						<g>
							<path style="fill:#DCE4F4;" d="M417.617,74.291c-0.108,0.063-0.251,0.146-0.359,0.209c-0.111,0.065-0.26,0.151-0.372,0.216
								c-0.735,0.427-1.469,0.854-2.204,1.281c0,0,0,0,0,0C415.66,75.428,416.638,74.859,417.617,74.291z"/>
						</g>
						<g>
							<path style="fill:#4B6FC6;" d="M417.621,85.634l3.323-1.931c-0.195,1.273,0.029,1.525,0.744,1.937
								c0.097,0.056,0.203,0.115,0.317,0.179c0.207,0.116,0.481,0.272,0.788,0.449c1.227,0.709,2.976,1.745,3.029,1.775
								c1.373,0.793,2.477,2.705,2.472,4.275c-0.002,0.567-0.148,1.01-0.402,1.306l-3.323,1.931c0.254-0.297,0.4-0.739,0.402-1.306
								c0.005-1.57-1.1-3.483-2.472-4.275c-0.053-0.031-1.801-1.067-3.029-1.775c-0.307-0.177-0.581-0.334-0.788-0.449
								c-0.115-0.065-0.221-0.123-0.318-0.179C417.651,87.159,417.427,86.907,417.621,85.634z"/>
						</g>
						<g>
							<path style="fill:#DCE4F4;" d="M418.005,74.065c-0.212,0.508-0.365,1.078-0.517,1.648c-1.108,0.644-2.215,1.287-3.323,1.931
								c0.152-0.57,0.305-1.14,0.517-1.648c0,0,0,0,0,0c0.058,0.003,0.117-0.068,0.167-0.097c0.489-0.284,0.978-0.569,1.468-0.853
								c0.433-0.252,0.867-0.504,1.301-0.756C417.746,74.216,417.875,74.14,418.005,74.065c-1.108,0.644-2.215,1.287-3.323,1.931
								c0.113-0.265,0.264-0.446,0.442-0.549l3.323-1.931C418.269,73.619,418.118,73.8,418.005,74.065z"/>
						</g>
						<g>
							<path style="fill:#4B6FC6;" d="M415.124,75.447l3.323-1.931c0.28-0.162,0.624-0.13,0.982,0.077l-3.323,1.931
								C415.747,75.317,415.403,75.285,415.124,75.447z"/>
						</g>
						<g>
							<path style="fill:#4B6FC6;" d="M416.106,75.524l3.323-1.931c0.44,0.254,0.902,0.771,1.293,1.514
								c0.546,1.036,0.7,2.005,0.739,2.949c0.073,2.01-0.125,3.836-0.486,5.547l-3.323,1.931c0.361-1.711,0.559-3.537,0.486-5.547
								c-0.039-0.944-0.193-1.913-0.739-2.949C417.007,76.295,416.546,75.778,416.106,75.524z"/>
						</g>
						<g>
							<path style="fill:#66A3B2;" d="M416.106,75.524c0.44,0.254,0.902,0.771,1.293,1.514c0.546,1.036,0.7,2.005,0.739,2.949
								c0.073,2.01-0.125,3.836-0.486,5.547l-0.03,0.1c-0.195,1.273,0.029,1.525,0.744,1.937c0.097,0.056,0.203,0.115,0.318,0.179
								c0.207,0.116,0.481,0.272,0.788,0.449c1.227,0.709,2.976,1.745,3.029,1.775c1.373,0.792,2.477,2.705,2.472,4.275
								c-0.002,0.567-0.147,1.01-0.402,1.306l0.042,0.094l0.078,0.163c0.637,0.929,1.044,2.037,1.041,3.026
								c-0.003,0.996-0.427,1.631-1.073,1.82c-0.048,0.048-0.103,0.1-0.157,0.145c0.155,0.464,0.245,0.931,0.243,1.374
								c-0.003,1.231-0.681,1.88-1.627,1.735c0.167,0.54,0.28,1.084,0.279,1.595c-0.005,1.57-1.116,2.204-2.483,1.415
								c-0.025-0.014-0.743-0.422-1.751-1.004c-1.655-0.956-4.092-2.382-5.522-3.306c-1.065-0.684-2.105-1.798-3.152-2.721
								c-1.065-0.94-2.117-1.936-3.194-2.821c-0.493-0.403-0.655-0.718-0.648-1.268c0.018-2.172,0.049-10.878,0.043-13.064
								c-0.005-0.488,0.159-0.643,0.58-0.434c2.276,1.141,3.822,0.536,5.044-0.823c0.883-0.987,1.436-2.338,1.85-3.838
								c0.152-0.57,0.305-1.141,0.517-1.648C414.973,75.314,415.52,75.186,416.106,75.524z"/>
						</g>
						<path style="fill:#9BD3E7;" d="M415.102,59.882c-6.58-3.799-12.54-4.151-16.844-1.649l-3.323,1.931
							c4.304-2.501,10.264-2.149,16.844,1.65c13.076,7.55,23.638,25.85,23.595,40.869c-0.021,7.465-2.655,12.716-6.905,15.185
							l3.323-1.931c4.249-2.469,6.883-7.721,6.904-15.185C438.74,85.732,428.179,67.432,415.102,59.882z"/>
						<g>
							<path style="fill:#D6EBED;" d="M411.779,61.813c13.076,7.55,23.638,25.85,23.595,40.869
								c-0.043,15.026-10.673,21.084-23.749,13.534c-2.474-1.429-4.863-3.244-7.107-5.35l-5.835,1.142
								c-0.28,0.055-0.586-0.023-0.884-0.195c-0.824-0.476-1.589-1.67-1.586-2.742l0.023-8.302
								c-5.043-7.914-8.231-17.162-8.207-25.423C388.072,60.328,398.703,54.264,411.779,61.813z M424.658,100.659
								c0.646-0.188,1.07-0.824,1.073-1.82c0.003-0.989-0.404-2.097-1.041-3.026l-0.078-0.163l-0.042-0.094
								c0.254-0.297,0.4-0.739,0.402-1.306c0.005-1.57-1.1-3.483-2.472-4.275c-0.053-0.031-1.801-1.067-3.029-1.775
								c-0.307-0.177-0.581-0.334-0.788-0.449c-0.115-0.065-0.221-0.123-0.318-0.179c-0.714-0.412-0.939-0.664-0.744-1.937l0.03-0.1
								c0.361-1.711,0.559-3.537,0.486-5.547c-0.039-0.944-0.194-1.913-0.739-2.949c-0.391-0.743-0.853-1.26-1.293-1.514
								c-0.586-0.338-1.133-0.21-1.424,0.473c-0.212,0.508-0.365,1.078-0.517,1.648c-0.414,1.5-0.967,2.851-1.85,3.838
								c-1.222,1.359-2.767,1.964-5.044,0.823c-0.422-0.209-0.585-0.053-0.58,0.434c0.006,2.186-0.025,10.892-0.043,13.065
								c-0.008,0.55,0.154,0.865,0.648,1.268c1.077,0.885,2.129,1.881,3.194,2.821c1.047,0.923,2.087,2.036,3.152,2.721
								c1.429,0.924,3.866,2.35,5.522,3.306c1.008,0.582,1.726,0.989,1.751,1.004c1.367,0.789,2.478,0.156,2.483-1.415
								c0.001-0.512-0.112-1.055-0.315-1.589c0.982,0.138,1.66-0.511,1.663-1.742c0.001-0.443-0.088-0.91-0.243-1.374
								C424.556,100.759,424.61,100.708,424.658,100.659 M405.697,95.11c0.012-4.248,0.024-8.502,0.036-12.75
								c0.003-1.01-0.321-1.571-1.188-2.072c-1.878-1.085-3.757-2.169-5.635-3.254c-0.927-0.528-1.223-0.367-1.226,0.692
								c-0.006,2.138-0.036,10.678-0.036,12.819c-0.003,1.024,0.303,1.561,1.182,2.068c1.86,1.074,3.721,2.148,5.581,3.222
								C405.391,96.403,405.693,96.238,405.697,95.11"/>
						</g>
					</g>
				</g>
				<g>
					<g style="enable-background:new    ;">
						<path style="fill:#84C2D3;" d="M227.272,132.03l3.033-1.327c0.452-0.198,0.744-0.644,0.744-1.137v-5.575l-4.168-1.353
							L227.272,132.03z"/>
						<g>
							<polygon style="fill:#4B6FC6;" points="226.734,124.11 202.643,105.929 203.181,106.355 227.272,124.536 							"/>
						</g>
						<g>
							<path style="fill:#4B6FC6;" d="M206.164,92.503c0.819,0.473,1.561,0.517,2.096,0.206l-3.712,2.157
								c-0.536,0.311-1.277,0.267-2.096-0.206C203.565,94.013,205.05,93.151,206.164,92.503z"/>
						</g>
						<g>
							<path style="fill:#4B6FC6;" d="M203.234,87.422c-0.005,1.87,1.309,4.146,2.929,5.082c-3.234,1.87-3.234,1.87-3.279,1.905
								l-0.433,0.252c-1.621-0.936-2.935-3.212-2.929-5.082C200.759,88.86,201.996,88.141,203.234,87.422
								c-1.238,0.719-2.475,1.438-3.712,2.157c0.003-0.925,0.331-1.576,0.858-1.883l3.712-2.157
								C203.565,85.845,203.237,86.496,203.234,87.422z"/>
						</g>
						<g>
							<path style="fill:#FFCE47;" d="M200.381,87.696l3.712-2.157c0.535-0.311,1.275-0.268,2.09,0.203l-3.712,2.157
								C201.655,87.428,200.915,87.385,200.381,87.696z"/>
						</g>
						<g>
							<path style="fill:#FEFEFE;" d="M202.471,87.899c1.628,0.94,2.941,3.215,2.936,5.078c-0.005,1.87-1.328,2.624-2.955,1.684
								c-1.621-0.936-2.935-3.211-2.929-5.082C199.528,87.717,200.85,86.963,202.471,87.899z"/>
						</g>
						<g>
							<path style="fill:#FFCE47;" d="M208.26,92.709l-3.712,2.157c0.529-0.307,0.856-0.961,0.859-1.89
								c0.005-1.862-1.309-4.138-2.936-5.078l3.712-2.157c1.628,0.94,2.941,3.215,2.936,5.078
								C209.116,91.748,208.789,92.402,208.26,92.709z"/>
						</g>
						<g>
							<path style="fill:#4B6FC6;" d="M216.225,98.312c0.819,0.473,1.561,0.517,2.096,0.206l-3.712,2.157
								c-0.535,0.311-1.277,0.267-2.096-0.206C213.626,99.822,215.111,98.959,216.225,98.312z"/>
						</g>
						<g>
							<path style="fill:#4B6FC6;" d="M213.295,93.23c-0.005,1.87,1.309,4.146,2.929,5.082c-1.093,0.635-2.186,1.27-3.279,1.905
								l-0.433,0.252c-1.621-0.936-2.935-3.212-2.929-5.082C210.821,94.669,212.057,93.949,213.295,93.23
								c-1.238,0.719-2.475,1.438-3.712,2.157c0.003-0.925,0.331-1.576,0.858-1.883l3.712-2.157
								C213.626,91.654,213.298,92.305,213.295,93.23z"/>
						</g>
						<g>
							<path style="fill:#FFCE47;" d="M210.442,93.504l3.712-2.157c0.535-0.311,1.275-0.268,2.09,0.203l-3.712,2.157
								C211.716,93.237,210.976,93.193,210.442,93.504z"/>
						</g>
						<g>
							<path style="fill:#FFCE47;" d="M218.321,98.518l-3.712,2.157c0.529-0.307,0.856-0.961,0.859-1.89
								c0.005-1.862-1.309-4.138-2.936-5.078l3.712-2.157c1.627,0.94,2.941,3.215,2.936,5.078
								C219.177,97.557,218.85,98.211,218.321,98.518z"/>
						</g>
						<g>
							<path style="fill:#FEFEFE;" d="M212.532,93.707c1.628,0.94,2.941,3.215,2.936,5.078c-0.005,1.87-1.328,2.624-2.955,1.684
								c-1.621-0.936-2.935-3.212-2.929-5.082C209.589,93.525,210.911,92.772,212.532,93.707z"/>
						</g>
						<g>
							<path style="fill:#4B6FC6;" d="M226.286,104.121c0.819,0.473,1.561,0.517,2.096,0.206l-3.712,2.157
								c-0.535,0.311-1.277,0.267-2.096-0.206C223.688,105.631,225.172,104.768,226.286,104.121z"/>
						</g>
						<g>
							<path style="fill:#4B6FC6;" d="M223.356,99.039c-0.005,1.87,1.309,4.146,2.929,5.082c-3.234,1.87-3.234,1.87-3.279,1.905
								l-0.433,0.252c-1.621-0.936-2.935-3.212-2.929-5.082C220.882,100.477,222.119,99.758,223.356,99.039
								c-1.238,0.719-2.475,1.438-3.712,2.157c0.003-0.925,0.331-1.576,0.858-1.883l3.712-2.157
								C223.687,97.462,223.359,98.114,223.356,99.039z"/>
						</g>
						<g>
							<path style="fill:#FFCE47;" d="M220.503,99.313l3.712-2.157c0.535-0.311,1.275-0.268,2.09,0.203l-3.712,2.157
								C221.777,99.045,221.037,99.002,220.503,99.313z"/>
						</g>
						<g>
							<path style="fill:#FFCE47;" d="M228.382,104.327l-3.712,2.157c0.529-0.307,0.856-0.961,0.859-1.89
								c0.005-1.863-1.309-4.138-2.936-5.078l3.712-2.157c1.627,0.94,2.941,3.215,2.936,5.078
								C229.239,103.366,228.911,104.02,228.382,104.327z"/>
						</g>
						<g>
							<path style="fill:#FEFEFE;" d="M222.593,99.516c1.628,0.94,2.941,3.215,2.936,5.078c-0.005,1.87-1.328,2.624-2.955,1.684
								c-1.621-0.936-2.935-3.211-2.929-5.082C219.65,99.334,220.972,98.58,222.593,99.516z"/>
						</g>
						<path style="fill:#84C2D3;" d="M238.636,89.02l-44.979-25.969c-1.137-0.656-2.167-0.718-2.91-0.286l-3.712,2.157
							c0.743-0.432,1.773-0.371,2.91,0.286l44.979,25.969c2.26,1.305,4.09,4.467,4.082,7.063l-0.08,28.23
							c-0.004,1.285-0.459,2.191-1.194,2.618l3.712-2.157c0.735-0.427,1.19-1.333,1.194-2.618l0.08-28.23
							C242.726,93.487,240.896,90.325,238.636,89.02z"/>
						<g>
							<path style="fill:#9BD3E7;" d="M234.924,91.177c2.26,1.305,4.09,4.467,4.082,7.063l-0.08,28.23
								c-0.007,2.589-1.849,3.639-4.109,2.334l-7.496-4.354l-0.05,7.579l-5.945-11.042l-31.488-18.152
								c-2.26-1.305-4.083-4.47-4.076-7.059l0.08-28.23c0.007-2.597,1.843-3.642,4.102-2.338L234.924,91.177z M202.452,94.661
								c1.628,0.94,2.95,0.186,2.955-1.684c0.005-1.862-1.309-4.138-2.936-5.078c-1.621-0.936-2.943-0.182-2.949,1.68
								C199.517,91.449,200.831,93.725,202.452,94.661 M212.513,100.469c1.628,0.94,2.95,0.186,2.955-1.684
								c0.005-1.862-1.309-4.138-2.936-5.078c-1.621-0.936-2.943-0.182-2.949,1.68C209.578,97.258,210.892,99.534,212.513,100.469
								 M222.574,106.278c1.628,0.94,2.95,0.186,2.955-1.684c0.005-1.862-1.309-4.138-2.936-5.078
								c-1.621-0.936-2.943-0.182-2.949,1.68C219.639,103.067,220.953,105.342,222.574,106.278"/>
						</g>
					</g>
				</g>
			</g>
		</g>
	</g>
</g>
</svg>
